<?xml version="1.0" encoding="UTF-8"?>
<svg id="Livello_2" data-name="Livello 2" xmlns="http://www.w3.org/2000/svg" viewBox="0 0 107.78 107.65">
  <defs>
    <style>
      .cls-1 {
        fill: #d8dce1;
      }

      .cls-2 {
        fill: #193658;
      }

      .cls-3 {
        fill: #fff;
      }
    </style>
  </defs>
  <g id="Livello_1-2" data-name="Livello 1">
    <g>
      <path class="cls-2" d="M50.92.1c40.09-2.39,68.54,39.15,52.13,75.85-16.94,37.91-69.24,42.97-93.18,8.94S8.93,2.6,50.92.1Z"/>
      <path class="cls-3" d="M50.63,11.81c35.66-2.64,58.5,37.61,37.48,66.76-18.08,25.06-56.22,22.68-71.14-4.29C2.14,47.5,20.27,14.06,50.63,11.81Z"/>
      <path class="cls-2" d="M51.21,23.52c24.96-2.1,41.7,24.98,28.58,46.44-12.35,20.21-42.95,18.71-53.23-2.65-9.25-19.23,3.38-42,24.65-43.79Z"/>
      <path class="cls-3" d="M51.8,35.23c25.39-2.59,28.12,35.52,3.72,37.39s-27.55-34.95-3.72-37.39Z"/>
      <path class="cls-1" d="M52.66,46.93c9.58-1.52,11.23,12.82,2.25,13.96-9.25,1.17-10.91-12.58-2.25-13.96Z"/>
    </g>
  </g>
</svg>