<?xml version="1.0" encoding="UTF-8"?>
<svg id="Livello_2" data-name="Livello 2" xmlns="http://www.w3.org/2000/svg" viewBox="0 0 105.73 106.6">
  <defs>
    <style>
      .cls-1 {
        fill: #d8dce1;
      }

      .cls-2 {
        fill: #193658;
      }

      .cls-3 {
        fill: #3253a0;
      }

      .cls-4 {
        fill: #d5d9de;
      }

      .cls-5 {
        fill: #fff;
      }

      .cls-6 {
        fill: #cfd3d9;
      }

      .cls-7 {
        fill: #3354a1;
      }
    </style>
  </defs>
  <g id="Livello_1-2" data-name="Livello 1">
    <g>
      <path class="cls-1" d="M94.28,26.88c-6.99.84-14.04,1.13-21.15.86-22.02-.24-44.03-.42-66.04-.54l-2.35-.32c-1.95-.06-4.18.52-4.48-2.09-.83-7.06.62-15.71.02-22.93C.47.66,1.45-.05,2.63,0l94.53.07c1.03.31,1.48,1,1.6,2.03.82,7.06-.61,15.7-.02,22.93-.5,2.34-2.64,1.78-4.46,1.84Z"/>
      <path class="cls-1" d="M4.75,35.83c6.99-.84,14.04-1.13,21.15-.86,22.02.24,44.03.42,66.04.54l2.35.32c1.73.06,3.76-.49,4.42,1.6,0,8.01.3,16.1-.15,24.07-.85,1.64-2.75,1.15-4.27,1.19-1.13,1.03-2.61.54-3.92,0l-1.04.02c-6.17-3.45-13.85-3.4-20.02,0l-1.04-.03-1.69.56H5.09l-.35-.56c-2.07-.07-4.38.5-4.49-2.37l.07-22.9c.66-2.09,2.68-1.54,4.42-1.6Z"/>
      <path class="cls-1" d="M4.75,71.65l.2-.56h55.14l.35.56.19,1.01c-3.69,9.25.23,19.78,8.61,24.95l.43.91-68.01-.13c-.9-.38-1.28-1.01-1.39-1.97-.82-7.06.61-15.7.02-22.93.5-2.34,2.64-1.78,4.46-1.84Z"/>
      <path class="cls-2" d="M90.37,62.69c1.75.31,3.52,1.59,3.92,3.36,3.82,4.11,5.99,9.9,5.59,15.52-.13,1.83-.95,3.75-1.11,5.46-.24,1.47-.66,2.79-1.39,4.08.72.61,1.18,1.3,1.39,2.07,1.88,2,6.9,6.28,6.97,8.84.06,2.19-2.16,4.51-4.34,4.56-3.12.08-7.64-6.03-10.19-8.09-.78-.47-1.53-.47-2.24,0-1.42.18-3.15,1.21-4.7,1.6-5.24,1.29-9.73.45-14.61-1.6-9.36-5.34-13.7-16.76-9.23-26.86-.18-.23-.26-.48-.26-.77.03-1.38,5.88-8.38,8.09-8.19,6.53-4.1,15.58-4.16,22.1,0Z"/>
      <path class="cls-7" d="M94.28,26.88v8.95c-29.71.71-59.88-.95-89.54,0v-8.95c29.71-.71,59.88.95,89.54,0Z"/>
      <path class="cls-7" d="M68.26,62.69c-3.02,1.9-6.39,5.68-7.83,8.95H4.75v-8.95h63.52Z"/>
      <path class="cls-4" d="M98.76,93.19c-.47-.5-1.94-1.39-1.96-2.09-.01-.47,1.75-3.26,1.96-4.06-.19,1.95.14,4.17,0,6.16Z"/>
      <path class="cls-3" d="M94.28,62.69v3.36c-.96-1.03-2.75-2.61-3.92-3.36,1.3-.03,2.62.04,3.92,0Z"/>
      <path class="cls-6" d="M91.21,98.51c-.72.06-1.54-.09-2.24,0,1.19-1.5,1.35-.72,2.24,0Z"/>
      <path class="cls-5" d="M68.75,9.04c6.3-1.02,7.22,7.95,1.83,8.82-6.3,1.02-7.22-7.95-1.83-8.82Z"/>
      <path class="cls-5" d="M84.42,9.04c6.3-1.02,7.22,7.95,1.83,8.82-6.3,1.02-7.22-7.95-1.83-8.82Z"/>
      <path class="cls-5" d="M68.75,44.85c6.3-1.02,7.22,7.95,1.83,8.82-6.3,1.02-7.22-7.95-1.83-8.82Z"/>
      <path class="cls-5" d="M84.42,44.85c6.3-1.02,7.22,7.95,1.83,8.82-6.3,1.02-7.22-7.95-1.83-8.82Z"/>
      <path class="cls-5" d="M77.15,66.41c19.36-2.33,21.39,25.76,3.8,27.59-18.54,1.93-20.89-25.53-3.8-27.59Z"/>
    </g>
  </g>
</svg>