<?xml version="1.0" encoding="UTF-8"?>
<svg viewBox="0 0 24 24" width={_themeGet('sizes', props.size) || '24'} height={_themeGet('sizes', props.size) || '24'} xmlns="http://www.w3.org/2000/svg">
            <path fill={_themeGet('colors', props.fill) || 'currentColor'} d="m20.49591,2.08156c0.0318,-0.28661 -0.2103,-0.52879 -0.4969,-0.49694l-12.06166,1.34018c-0.37502,0.04166 -0.53531,0.49863 -0.2685,0.76544l1.79776,1.79777c0.29289,0.29289 0.29289,0.76776 0,1.06066l-5.834,5.83399c-0.17573,0.1757 -0.17573,0.4607 0,0.6364l5.42913,5.4291c0.17574,0.1758 0.46066,0.1758 0.6364,0l5.83397,-5.834c0.2929,-0.2929 0.7678,-0.2929 1.0607,0l1.7975,1.7975c0.2668,0.2668 0.7238,0.1065 0.7654,-0.2685l1.3402,-12.0616zm-0.6626,-1.98777c1.242,-0.138 2.2914,0.91143 2.1534,2.15342l-1.3402,12.06165c-0.1805,1.6251 -2.1607,2.3197 -3.3169,1.1635l-1.2671,-1.2672l-5.3037,5.3037c-0.76153,0.7615 -1.9962,0.7615 -2.75773,0l-5.42913,-5.4291c-0.76152,-0.7616 -0.76152,-1.9962 0,-2.7578l5.30367,-5.30362l-1.26743,-1.26744c-1.15618,-1.15617 -0.46158,-3.13636 1.16351,-3.31693l12.06161,-1.34018z" id="svg_1" transform="rotate(135 11.9999 10.0808)" />
        </svg>