<?xml version="1.0" encoding="UTF-8"?>
<svg viewBox="0 0 24 24" width={_themeGet('sizes', props.size) || '24'} height={_themeGet('sizes', props.size) || '24'} xmlns="http://www.w3.org/2000/svg">
			<path fill={_themeGet('colors', props.fill) || 'currentColor'} d="m19.693,13c1.2926,0 2.34045,0.7835 2.34045,1.75l0,4.5c0,0.9665 -1.04785,1.75 -2.34045,1.75l-15.38014,0c-1.2926,0 -2.34045,-0.7835 -2.34045,-1.75l0,-4.5c0,-0.9665 1.04785,-1.75 2.34045,-1.75m15.38014,1.5l-15.38014,0c-0.18465,0 -0.33435,0.1119 -0.33435,0.25l0,4.5c0,0.1381 0.1497,0.25 0.33435,0.25l15.38014,0c0.1847,0 0.33435,-0.1119 0.33435,-0.25l0,-4.5c0,-0.1381 -0.14966,-0.25 -0.33435,-0.25zm-0.00588,-11.5c1.2926,0 2.34045,0.7835 2.34045,1.75l0,4.5c0,0.9665 -1.04785,1.75 -2.34045,1.75l-15.38012,0c-1.29258,0 -2.34045,-0.7835 -2.34045,-1.75l0,-4.5c0,-0.91817 0.94569,-1.67119 2.14851,-1.7442l0.19194,-0.0058l15.38012,0zm0,1.5l-15.38012,0l-0.07666,0.0066c-0.1477,0.02591 -0.25769,0.12505 -0.25769,0.2434l0,4.5c0,0.13807 0.1497,0.25 0.33435,0.25l15.38012,0c0.1847,0 0.33435,-0.11193 0.33435,-0.25l0,-4.5c0,-0.13807 -0.14966,-0.25 -0.33435,-0.25z" />
		</svg>