<?xml version="1.0" encoding="UTF-8"?>
<svg id="Livello_2" data-name="Livello 2" xmlns="http://www.w3.org/2000/svg" viewBox="0 0 106.56 121.64">
  <defs>
    <style>
      .cls-1 {
        fill: #d8dce1;
      }

      .cls-2 {
        fill: #193658;
      }

      .cls-3 {
        fill: #fff;
      }

      .cls-4 {
        fill: #3354a1;
      }
    </style>
  </defs>
  <g id="Livello_1-2" data-name="Livello 1">
    <g>
      <path class="cls-2" d="M73.9,32.11c16.4-1.69,29.5,13.28,25.17,29.29-.62,2.31-1.9,4.24-2.58,6.5,2.2,3.17,9.96,8.28,10.06,12.13.07,2.58-2.59,5.23-5.17,5.17-3.85-.1-8.97-7.87-12.13-10.06-2.26.68-4.19,1.96-6.5,2.58-18.52,5-34.91-13.32-27.73-31.21,3.03-7.55,10.68-13.55,18.86-14.39Z"/>
      <path class="cls-4" d="M22.98,94.09l.63.22c-.1,8.91-.2,17.83-.31,26.75l-.64.58c-7.51-3-15.27-5.71-22.45-9.37l-.03-27.36c.16-.24.43-.36.79-.37l21.9,8.82.12.73Z"/>
      <path class="cls-1" d="M22.66,121.64l.32-27.55-.04-.67,21.1-8.87.79.35c.39.56.78.85.65,1.73-.56,7.77.69,16.44,0,24.1-.09.98-.21,1.82-1.2,2.28-7.24,2.76-14.35,6.05-21.62,8.63Z"/>
      <path class="cls-1" d="M44.52,8.9c.08.05.44-.13.66.2.25.37.27,1.07.31,1.53l-.16,25.21c-.2.6-.53.86-1.04,1.18-2.4,1.48-8.24,3.33-11.17,4.51l-.18.76c-3.15,1.55-6.4,2.85-9.73,3.9l-.54-.54-.63-.23c.1-8.88.21-17.75.31-26.63l.64-.38c-.69-.61.25-1.24.89-1.57l19.38-8.09c.41-.09.83-.04,1.27.16Z"/>
      <path class="cls-1" d="M33.75,79.52l-.22.78c-1.33.7-9.87,4.62-10.68,4.11-.21-.13-.21-.49-.18-.77l-.63-.38-.02-24.91c.05-1.3.48-2.05,1.28-2.26l.03-.7c6.97-2.87,13.94-5.74,20.92-8.61l.59.44c.32.53.83.84.65,1.73l-.15,25.21c-.21.63-.59.81-1.11,1.11-2.58,1.51-7.5,3.04-10.47,4.26Z"/>
      <path class="cls-4" d="M23.3,56.08l-.65,2.04.02,25.51-.5.55c-3.46-1.07-6.83-2.38-10.12-3.92l-.15-.75c-3.06-1.25-7.07-2.72-9.93-4.16-.76-.38-1.67-.63-1.97-1.52l.18-26.94,1.43-.11,21.57,8.57.12.73Z"/>
      <path class="cls-4" d="M22.98,18.4l-.32,27.24c.66,1.23-.71.8-1.58.49-3.08-1.09-6.77-2.56-9.19-4.61-3.19-1.28-7.68-2.57-10.57-4.16-.6-.33-1.08-.48-1.32-1.21L.18,9.21l.51-.23c7.44,2.7,14.83,5.59,22.17,8.69l.12.73Z"/>
      <path class="cls-2" d="M44.52,8.9l-20.67,8.63-.86.87L.18,9.21l.53-.56C8.04,5.96,15.11,2.42,22.5,0c1.31.06,2.44.71,3.64,1.15,5.29,1.95,12.35,4.62,17.34,7.06.46.23.67.44,1.04.69Z"/>
      <path class="cls-2" d="M22.66,45.63c2.61-.39,7.73-3.02,10.45-4.12,1.02.79,2.32,1.24,3.49,1.73,1.79.75,6.49,2.16,7.73,3.05.52.38.35.67.5.92l-21.54,8.87L.18,46.9l11.72-5.38c3.4,1.37,6.72,3.02,10.16,4.3.31.23.55-.18.61-.19Z"/>
      <path class="cls-2" d="M22.66,83.64c.22.04.13.29.86.12,2.63-.61,7.45-3.11,10.23-4.24,2.38,2.11,9.42,3.01,11.08,5.38l-21.85,9.18L.18,84.9c.16-.46.47-.64.86-.87,2.98-1.77,7.78-2.59,10.85-4.51,2.65,1.08,8.3,3.71,10.77,4.12Z"/>
      <path class="cls-3" d="M74.22,39.7c21.91-2.64,24.21,29.16,4.31,31.23-20.98,2.18-23.64-28.9-4.31-31.23Z"/>
    </g>
  </g>
</svg>