<?xml version="1.0" encoding="UTF-8"?>
<svg id="Livello_2" data-name="Livello 2" xmlns="http://www.w3.org/2000/svg" viewBox="0 0 86.34 86.41">
  <defs>
    <style>
      .cls-1 {
        fill: #d8dce1;
      }

      .cls-2 {
        fill: #fff;
      }

      .cls-3 {
        fill: #193659;
      }
    </style>
  </defs>
  <g id="Livello_1-2" data-name="Livello 1">
    <g>
      <path class="cls-3" d="M0,45.19l.3-.49h28.84s.59.24.59.24c.1,2.57.32,5.47,3.57,5.63,6.66.34,13.93.2,20.61-.09,2.15-.09,2.79-3.86,2.66-5.47l.49-.32h28.8c.18,0,.33.16.46.49v37.65c-.19,1.97-1.8,3.51-3.79,3.57l-79.61-.12c-1.59-.42-2.78-1.79-2.93-3.45v-37.65Z"/>
      <path class="cls-1" d="M0,45.19L12.56,3.67C13.55,1.6,15.47.26,17.77.05c17.44.26,35-.48,52.38.38,1.86.47,2.95,2.03,3.62,3.73l12.56,41.03h-29.43c.29,2.57-.26,4.9-2.93,5.78-6.63-.2-13.95.63-20.51.12-3.44-.27-4.38-2.76-4.04-5.9H0Z"/>
      <path class="cls-2" d="M54.85,11.61c.22-.06.32.11.46.21.51.34,4.43,4.27,4.79,4.79.15.22.35.33.12.62l-21.14,21.08-15.02-14.87.2-.7,5.25-5,9.6,9.54,15.73-15.68Z"/>
    </g>
  </g>
</svg>