<?xml version="1.0" encoding="UTF-8"?>
<svg id="Livello_2" data-name="Livello 2" xmlns="http://www.w3.org/2000/svg" viewBox="0 0 115.78 115.97">
  <defs>
    <style>
      .cls-1 {
        fill: #d8dce1;
      }

      .cls-2 {
        fill: #193658;
      }
    </style>
  </defs>
  <g id="Livello_1-2" data-name="Livello 1">
    <g>
      <path class="cls-1" d="M89.31,68.78c.1,1.47-3.15,2.87-4.53,3.33-.95.54-1.65.54-2.11,0-2.05.4-3.99.4-6.04,0-.49.54-1.22.54-2.19-.02-1.38-.47-4.52-1.83-4.45-3.3-1.74-.04-3.1-2.58-3.85-4.11-2.11-4.31-2.05-9.61.18-13.86.74-1.42,2.02-3.75,3.67-3.75-.07-1.47,3.07-2.83,4.45-3.3.97-.56,1.7-.57,2.19-.02,14.56-2.85,23.61,15.15,12.67,25.05Z"/>
      <path class="cls-1" d="M67.58,25.33l.03.77c-1.79,1.41-3.88,2.45-6.07,3.04l-.6-.48c-1.19,1.33-4.85,1.33-6.04,0l-.62.48c-2.18-.58-4.24-1.62-6.03-3.02v-.78c-8.31-7.39-5.32-21.51,5.37-24.66,15.07-4.44,25.31,14.38,13.95,24.66Z"/>
      <path class="cls-1" d="M39.21,43.74c.46-.55,1.16-.55,2.11,0,1.38.46,4.63,1.86,4.53,3.33,1.74.06,3.09,2.6,3.84,4.14,2.11,4.31,2.04,9.56-.18,13.81-.75,1.43-2.01,3.76-3.66,3.78.1,1.47-3.15,2.87-4.53,3.33-.95.54-1.65.54-2.11,0-2.05.4-3.99.4-6.04,0l-.62.48c-2.18-.58-4.24-1.62-6.03-3.02v-.78c-10.95-9.74-1.95-27.91,12.68-25.05Z"/>
      <path class="cls-1" d="M60.94,87.19l.6-.48c2.2.59,4.28,1.63,6.07,3.04l-.03.77c11.36,10.28,1.13,29.1-13.95,24.66-10.69-3.15-13.68-17.27-5.37-24.66v-.78c1.78-1.39,3.84-2.43,6.02-3.02l.62.48c1.19-1.33,4.85-1.33,6.04,0Z"/>
      <path class="cls-1" d="M91.72,90.51v-.78c1.78-1.39,3.84-2.43,6.02-3.02l.62.48c17.38-3.41,24.27,20.93,8.86,27.42s-27.54-13.39-15.5-24.1Z"/>
      <path class="cls-1" d="M17.49,87.19c.46-.55,1.16-.55,2.11,0,1.38.46,4.63,1.86,4.53,3.33,12.76,11.55-1.84,32.03-16.91,23.4-14.02-8.03-5.99-29.9,10.27-26.72Z"/>
      <path class="cls-2" d="M54.9,28.65l.42.52c-2.92,5.94-5.84,11.88-8.77,17.83l-.7.06c-1.62-1.46-4.51-2.9-6.64-3.32l9.05-18.41c1.65,1.47,4.47,2.9,6.64,3.32Z"/>
      <path class="cls-2" d="M76.63,43.74c-2.17.42-4.99,1.85-6.64,3.32h-.67c-2.92-5.93-5.84-11.87-8.77-17.81l.38-.59c2.13-.42,5.02-1.86,6.64-3.32l9.05,18.41Z"/>
      <path class="cls-2" d="M33.18,72.1l-9.05,18.41c-1.62-1.46-4.51-2.9-6.64-3.32l9.05-18.41c1.65,1.47,4.47,2.9,6.64,3.32Z"/>
      <path class="cls-2" d="M54.9,87.19c-2.17.42-4.99,1.85-6.64,3.32l-9.05-18.41c2.13-.42,5.02-1.86,6.64-3.32h.67c2.92,5.93,5.84,11.87,8.77,17.81l-.38.59Z"/>
      <path class="cls-2" d="M76.63,72.1l-9.05,18.41c-1.62-1.46-4.51-2.9-6.64-3.32l-.42-.52,8.77-17.83.7-.06c1.65,1.47,4.47,2.9,6.64,3.32Z"/>
      <path class="cls-2" d="M98.36,87.19c-2.17.42-4.99,1.85-6.64,3.32l-9.05-18.41c2.13-.42,5.02-1.86,6.64-3.32l9.05,18.41Z"/>
    </g>
  </g>
</svg>