<?xml version="1.0" encoding="UTF-8"?>
<svg id="Livello_2" data-name="Livello 2" xmlns="http://www.w3.org/2000/svg" viewBox="0 0 125.3 125.06">
  <defs>
    <style>
      .cls-1 {
        fill: #d8dce1;
      }

      .cls-2 {
        fill: #193658;
      }

      .cls-3 {
        fill: #3354a1;
      }
    </style>
  </defs>
  <g id="Livello_1-2" data-name="Livello 1">
    <g>
      <path class="cls-1" d="M93.82,41.63v10.06l-9.88-9.76c-13.87-.71-27.94-.12-41.89-.3-3.8,2.92-6.85,6.93-10.56,10.06v-10.06H14.77c-1.35,0-4.08-2.88-4.03-4.41.68-10.31-1-21.97-.04-32.12.21-2.24,1.36-3.79,3.41-4.71C46.39-.13,78.92-.13,111.2.39c1.81.79,3.19,2.41,3.39,4.4-.72,10.22.96,21.76.01,31.83-.17,1.84-2.09,5.02-4.07,5.02h-16.72Z"/>
      <path class="cls-3" d="M102.91,104.61c1.62-5.59,3.06-11.26,4.55-16.88,2.8.94,8.85,1.62,10.87,3.57,2.36,2.27,3.9,8.4,4.61,11.62,1.57,7.21,1.95,14.78,2.37,22.13h-53.56c.85-8.48,1.16-17.11,3.34-25.39.77-2.91,2.01-7.26,4.61-9.02.7-.48,9.54-3.29,9.9-2.92,1.29,5.68,2.93,11.3,4.55,16.88,2.27,4.17,3.72,9.23,4.35,13.94.55-4.74,2.13-9.74,4.42-13.94Z"/>
      <path class="cls-3" d="M29.54,105.25c.66-.6,3.72-2.95,3.82-3.45l-1.87-12.46,11.83.99c4.48.92,6.22,10.32,6.9,14.2,1.17,6.69,1.29,13.73,1.73,20.51H0c.28-7.46.49-15.47,2.04-22.79.63-2.99,2.76-11.3,6.24-11.94l11.84-.98-1.9,12.43c.99,1.48,2.58,2.31,3.84,3.47l.84-.1c.88,1.06,1.85,2,2.92,2.83l2.99-2.95.71.21Z"/>
      <path class="cls-1" d="M97.31,57.3c3.71-.48,7.5,1.07,9.81,3.98,7.08,8.91-3.97,29.92-13.95,20.12-6.75-6.63-7.68-22.56,4.14-24.1Z"/>
      <path class="cls-3" d="M20.45,83.18l-7.97.19-.75-.75c1.54-7.37-.14-17.28,6.12-22.65,6.02-5.17,14.8-3.39,18.77,3.32,1.85,3.13,3.05,13.5,3.31,17.47.04.68.07,1.39-.04,2.06-.46.74-7.41.21-8.72.37l-.1-.87c1.98-2.56,3.05-5.75,3.32-8.96-5.39.28-11.95-3.23-14.14-8.28-5.06,4.2-3.3,12.69.35,17.3l-.14.81Z"/>
      <path class="cls-1" d="M20.45,83.18c-4.33-4.5-6.25-15.53.16-19.16.69,3.23,3.64,5.42,6.44,6.88,2.29,1.19,5.49,2.49,8,1.57,0,3.51-1.5,8.11-3.89,10.71-3.16,3.43-7.53,3.31-10.71,0Z"/>
      <path class="cls-2" d="M94.14,104.61l3.48-13.88c.05-.65,1.52-.55,1.76-.21l3.53,14.1c-1.38,4.77-2.97,9.53-4.38,14.29-1.61-4.7-3-9.51-4.38-14.29Z"/>
      <path class="cls-2" d="M22.07,105.25c1.44-3.64,1.55-8.36,2.82-11.95.41-1.17,1.01-1.82,2.05-.79l2.59,12.74c-.5.45-3.48,3.56-3.73,3.56-1.5-.93-2.53-2.45-3.73-3.56Z"/>
    </g>
  </g>
</svg>