<?xml version="1.0" encoding="UTF-8"?>
<svg id="Livello_2" data-name="Livello 2" xmlns="http://www.w3.org/2000/svg" viewBox="0 0 108.78 106.54">
  <defs>
    <style>
      .cls-1 {
        fill: #d8dce1;
      }

      .cls-2 {
        fill: #193658;
      }

      .cls-3 {
        fill: #fff;
      }

      .cls-4 {
        fill: #3354a1;
      }

      .cls-5 {
        fill: #274382;
      }
    </style>
  </defs>
  <g id="Livello_1-2" data-name="Livello 1">
    <g>
      <path class="cls-1" d="M108.55,18.77c.12,22.29-.03,44.6-.07,66.9-.3,1.64-2.05,3.38-3.68,3.68-3.19.58-9.2.05-12.74.07-.05.26-.15.25-.29,0l-.59-.2v-39.88c-1.07-2.09-7.17-13.63-8.63-14.01-.93-.24-8.43,12.97-9.02,14.87.22,13.09.02,26.16-.6,39.22-23.19.04-46.49.2-69.63-.28-1.71-.74-3.04-2.35-3.09-4.27.11-22.03-.1-44.07.01-66.09l.28-.59h107.67l.37.59Z"/>
      <path class="cls-4" d="M108.55,18.77H.23c.02-4.2-.57-10.96.07-14.79C.66,1.82,2.19.45,4.27,0l100.75.07c1.81.65,3.12,1.94,3.45,3.9.64,3.84.05,10.6.07,14.79Z"/>
      <path class="cls-2" d="M91.77,89.41c.1,0,.2,0,.29,0,.51,6.38.2,15.81-7.88,17s-11.27-6.23-11.26-13.17c.12-1.27.22-2.55.29-3.83,6.13-.89,12.41-.86,18.54,0Z"/>
      <path class="cls-5" d="M72.93,93.24v-3.83c.05-.26.15-.25.29,0-.03,1.03.05,2.08.01,3.11-.01.38-.31.67-.31.71Z"/>
      <path class="cls-4" d="M91.77,89.41c-6.18.04-12.37-.01-18.54,0-.1,0-.2,0-.29,0,0-13.09-.02-26.19.02-39.28.23-1.55,6.25-11.61,7.51-13.39,1.44-2.03,2.06-3.01,3.77-.59,1.09,1.54,7.33,11.94,7.51,13.09l.02,40.16Z"/>
      <rect class="cls-3" x="19.07" y="49.38" width="40.03" height="4.71"/>
      <rect class="cls-3" x="19.07" y="63.51" width="40.03" height="4.71"/>
      <rect class="cls-3" x="19.07" y="35.25" width="25.9" height="4.71"/>
      <rect class="cls-2" x="9.65" y="6.99" width="4.71" height="4.71"/>
      <rect class="cls-2" x="19.07" y="6.99" width="4.71" height="4.71"/>
      <rect class="cls-2" x="28.49" y="6.99" width="4.71" height="4.71"/>
    </g>
  </g>
</svg>