<?xml version="1.0" encoding="UTF-8"?>
<svg id="Livello_2" data-name="Livello 2" xmlns="http://www.w3.org/2000/svg" viewBox="0 0 112.23 112.23">
  <defs>
    <style>
      .cls-1 {
        fill: #d8dce1;
      }

      .cls-2 {
        fill: #193658;
      }

      .cls-3 {
        fill: #3354a1;
      }
    </style>
  </defs>
  <g id="Livello_1-2" data-name="Livello 1">
    <g>
      <path class="cls-1" d="M107.35,102.47c-6.44.89-13.08.94-19.52,0V36.44c.19-1.66,1.05-2.16,2.58-2.3,3.11-.28,12.03-.42,14.94.03.96.15,1.67.79,1.94,1.72l.07,66.57Z"/>
      <path class="cls-2" d="M7.32,102.47c6.47-.91,13.05-.88,19.52,0,2.44,0,4.88,0,7.32,0,6.5-.76,13.02-.75,19.52,0,2.44,0,4.88,0,7.32,0,6.5-.75,13.02-.76,19.52,0,2.44,0,4.88,0,7.32,0,6.5,0,13.02-.05,19.52,0,1.62.01,3.26,0,4.88,0v9.76H0v-9.76c2.44,0,4.88,0,7.32,0Z"/>
      <path class="cls-3" d="M97.59,0v21.5c0,1.26-2.22,2.87-3.52,2.91-1.42.04-3.8-1.52-3.8-2.91v-9l-23.47,23.34c-1.21.98-2.85.99-4.13.14l-14.63-14.66-.58-.26-29.62,29.56c-3.28,2.13-7.16-1.77-5.04-5.04L45.77,12.68c1.22-.69,2.62-.65,3.79.13l14.63,14.66.58.26,20.32-20.41h-9c-1.26,0-2.87-2.22-2.91-3.52-.04-1.42,1.52-3.8,2.91-3.8h21.5Z"/>
      <path class="cls-1" d="M53.68,102.47c-6.5,0-13.02,0-19.52,0l.14-49.73c.33-.82.99-1.35,1.86-1.49,2.9-.45,11.83-.32,14.94-.03,1.53.14,2.39.63,2.58,2.3v48.96Z"/>
      <path class="cls-1" d="M80.51,102.47c-6.5,0-13.02,0-19.52,0l.23-35.3c.45-.86,1.11-1.19,2.05-1.3,3.33-.39,11.25-.32,14.66,0,1.53.14,2.39.63,2.58,2.3v34.32Z"/>
      <path class="cls-1" d="M26.84,102.47c-6.5,0-13.02-.02-19.52,0l.34-25.74c.47-.75,1.09-1.01,1.94-1.11,3.34-.39,11.24-.31,14.66,0,1.39.12,2.26.54,2.56,2.01l.02,24.84Z"/>
    </g>
  </g>
</svg>