<?xml version="1.0" encoding="UTF-8"?>
<svg id="Livello_2" data-name="Livello 2" xmlns="http://www.w3.org/2000/svg" viewBox="0 0 105.83 121.23">
  <defs>
    <style>
      .cls-1 {
        fill: #d8dce1;
      }

      .cls-2 {
        fill: #193658;
      }

      .cls-3 {
        fill: #fff;
      }

      .cls-4 {
        fill: #3354a1;
      }

      .cls-5 {
        fill: #193659;
      }
    </style>
  </defs>
  <g id="Livello_1-2" data-name="Livello 1">
    <g>
      <path class="cls-1" d="M67.85,2.32c1.41,1.81,1.88,4.07,1.42,6.79l-.31,8.39c-.01,6.81,1.15,8.38,8.04,8.39l8.96-.29c2.64-.44,4.83.03,6.58,1.42.99,1.22,2.22,2.42,2.3,4.11v23.21c.15.68-.26,1.22-1.23,1.64-7.85,7.98-15.8,15.88-23.84,23.67-.47.46-1.01.86-1.55,1.25s-1.12.75-1.7,1.1l-1.33.64c-6.67-.1-13.34-.2-20.01-.3l-.38-.66.66.38c.19,1.09.3,4.42-.66,4.89l.3-.66h16.1l.39.66.28.69c-1.17,1.39-4,13.13-3.61,13.72.36.55,12.36-2.14,12.84-2.6,6.93-6.6,13.79-13.27,20.41-20.18.99-.98,2.17-1.75,3.33-2.5v40.33c-.21,2.02-1.6,3.66-3.44,4.46-29.15.58-58.52.4-87.69.09-1.63-.62-2.83-1.82-3.46-3.46C-.27,80.06.2,42.56.02,5.1.14,2.39,2.41.11,5.13,0h58.3c1.84-.05,3.13,1.27,4.43,2.32Z"/>
      <path class="cls-2" d="M94.85,76.06c-7.61,7.88-15.37,15.77-23.37,23.21-1.27.55-11.62,2.94-12.68,2.82-1.33-.15-1.21-.54-1.07-1.75.27-2.3,2.07-9.8,2.89-11.93.22-.57.59-1.04.98-1.49l-.12-.86c.53-1.08,3.75-3.82,5.06-4.08,8.76-8.94,17.97-17.48,26.66-26.51.47-.25,1.25-.98,1.66-1.14,6.53-2.62,12.85,3.72,10.46,10.3-.83,2.28-8.27,9.15-10.46,11.43Z"/>
      <path class="cls-4" d="M92.55,27.01c-.97-.24-1.74-.59-2.78-.67-5.23-.39-11.38.6-16.47.01-2.28-.26-4.42-2.17-4.74-4.47-.71-5.02.41-11.55-.01-16.77-.09-1.04-.42-1.81-.67-2.78,6.55,5.31,19.38,18.14,24.69,24.69Z"/>
      <rect class="cls-3" x="44.81" y="44.79" width="26.34" height="5.27"/>
      <rect class="cls-3" x="44.81" y="63.22" width="26.34" height="5.27"/>
      <path class="cls-3" d="M66.54,81.99c-1.48,1.51-3.67,3.45-4.94,4.94h-16.79v-5.27l21.73.33Z"/>
      <path class="cls-5" d="M34.81,41.52c.41-.07,3.79,3.28,3.72,3.72l-9.03,9.09-7.07-7.07,3.78-3.78,3.29,3.28,5.31-5.24Z"/>
      <path class="cls-5" d="M34.81,59.95c.41-.07,3.79,3.28,3.72,3.72l-9.03,9.09-7.07-7.07,3.78-3.78,3.29,3.28,5.31-5.24Z"/>
      <rect class="cls-3" x="23.74" y="81.66" width="10.53" height="5.27"/>
    </g>
  </g>
</svg>