<?xml version="1.0" encoding="UTF-8"?>
<svg id="Livello_2" data-name="Livello 2" xmlns="http://www.w3.org/2000/svg" viewBox="0 0 100.86 98.64">
  <defs>
    <style>
      .cls-1 {
        fill: #d8dce1;
      }

      .cls-2 {
        fill: #fff;
      }

      .cls-3 {
        fill: #3354a1;
      }

      .cls-4 {
        fill: #356fb6;
      }
    </style>
  </defs>
  <g id="Livello_1-2" data-name="Livello 1">
    <g>
      <path class="cls-1" d="M53.79,41.48c.02-12.37,0-24.76-.01-37.13.08-2.29,2.06-4.27,4.34-4.34h38.68c1.41-.16,4.06,2.28,4.06,3.51v95.12c-3.73,0-7.48-.01-11.21,0l-.56-.32v-3.59c-1.38.16-2.69-.04-3.92-.57l-.56-.26v-18.02c-.1-.35-.23-.75-.55-.98-1.14-.8-11.93-.8-13.28-.13-.13.07-.44.32-.49.43l-.25,18.63-.57.33c-1.21.65-2.59.68-3.92.48v3.6s-.56.4-.56.4c-3.73,0-7.48,0-11.21,0-.83-19.04-.86-38.12,0-57.16Z"/>
      <path class="cls-3" d="M53.79,41.48c-.03,19.05.02,38.11,0,57.16-17.93,0-35.87,0-53.79,0v-57.02c0-.45,1.12-2.01,1.54-2.38.99-.87,1.8-1.03,3.07-1.13,14.4-1.14,30.28.87,44.84.02,2.4.24,3.25,1.38,4.35,3.36Z"/>
      <path class="cls-3" d="M69.48,94.15c5.19-.85,10.5-.85,15.69,0,1.49.01,2.99,0,4.48,0v4.48c-8.22.03-16.44,0-24.66,0v-4.48c1.49,0,2.99.01,4.48,0Z"/>
      <path class="cls-2" d="M85.17,94.15c-5.22-.04-10.47-.04-15.69,0l.31-19.16c.43-.69,1-.93,1.78-1.02,2.58-.3,8.59-.24,11.23,0,1.27.11,2.08.49,2.35,1.85l.02,18.34Z"/>
      <rect class="cls-3" x="62.76" y="11.22" width="11.21" height="11.21"/>
      <rect class="cls-3" x="80.69" y="11.22" width="11.21" height="11.21"/>
      <rect class="cls-3" x="62.76" y="29.15" width="11.21" height="11.21"/>
      <rect class="cls-3" x="80.69" y="29.15" width="11.21" height="11.21"/>
      <rect class="cls-3" x="62.76" y="47.08" width="11.21" height="11.21"/>
      <rect class="cls-3" x="80.69" y="47.08" width="11.21" height="11.21"/>
      <rect class="cls-4" x="11.21" y="49.32" width="11.21" height="11.21"/>
      <rect class="cls-4" x="31.38" y="49.32" width="11.21" height="11.21"/>
      <rect class="cls-4" x="11.21" y="67.25" width="11.21" height="11.21"/>
      <rect class="cls-4" x="31.38" y="67.25" width="11.21" height="11.21"/>
    </g>
  </g>
</svg>