<?xml version="1.0" encoding="UTF-8"?>
<svg id="Livello_1" data-name="Livello 1" xmlns="http://www.w3.org/2000/svg" viewBox="0 0 144.76 136.74">
  <defs>
    <style>
      .cls-1 {
        fill: #fcfcfc;
      }

      .cls-2 {
        fill: #193658;
      }

      .cls-3 {
        fill: #3354a1;
      }

      .cls-4 {
        fill: #d8dce1;
      }
    </style>
  </defs>
  <g>
    <path class="cls-3" d="M128.12,80.62c-2.39-18.92-29.79-19.37-44.55-14.63-6.81-10.27-17.48-17.35-29.59-19.62-.96-29.74,26.34-51.12,54.34-45.45,37.37,7.57,49.47,55.18,19.8,79.7ZM117.04,39.67c0-9.86-7.99-17.85-17.85-17.85s-17.85,7.99-17.85,17.85,7.99,17.85,17.85,17.85,17.85-7.99,17.85-17.85Z"/>
    <path class="cls-2" d="M128.12,80.62c-10.3,8.52-23.61,12.99-36.97,10-.1-8.77-2.74-17.32-7.58-24.63,14.76-4.74,42.17-4.29,44.55,14.63Z"/>
    <circle class="cls-4" cx="99.19" cy="39.67" r="17.85"/>
  </g>
  <g>
    <path class="cls-4" d="M53.98,46.36c12.11,2.27,22.78,9.35,29.59,19.62,4.84,7.31,7.48,15.86,7.58,24.63.16,13.49-5.66,26.36-15.91,35.14-6.33-22.97-51.58-22.73-59.78-.39C.06,111.81-4.38,89.63,4.61,71.19s29.2-28.6,49.37-24.82ZM63.29,85.24c0-9.8-7.95-17.75-17.75-17.75s-17.75,7.95-17.75,17.75,7.95,17.75,17.75,17.75,17.75-7.95,17.75-17.75Z"/>
    <path class="cls-3" d="M75.25,125.76c-17.24,14.78-42.74,14.62-59.78-.39,8.2-22.34,53.45-22.58,59.78.39Z"/>
    <circle class="cls-1" cx="45.55" cy="85.24" r="17.75"/>
  </g>
</svg>