<?xml version="1.0" encoding="UTF-8"?>
<svg id="Livello_2" data-name="Livello 2" xmlns="http://www.w3.org/2000/svg" viewBox="0 0 99.94 94.68">
  <defs>
    <style>
      .cls-1 {
        fill: #d8dce1;
      }

      .cls-2 {
        fill: #193658;
      }

      .cls-3 {
        fill: #d5d9de;
      }

      .cls-4 {
        fill: #fff;
      }

      .cls-5 {
        fill: #d8dbe0;
      }

      .cls-6 {
        fill: #3354a1;
      }
    </style>
  </defs>
  <g id="Livello_1-2" data-name="Livello 1">
    <g>
      <path class="cls-1" d="M25.48,0C48.13-.02,70.79.03,93.43,0v19.11c-22.65-.02-45.3.03-67.95,0l-.53-.25V.33l.53-.32Z"/>
      <path class="cls-1" d="M25.48,23.37c22.65-.03,45.3.02,67.95,0v19.11c-22.65-.02-45.3.03-67.95,0l-.53-.25v-18.54l.53-.32Z"/>
      <path class="cls-1" d="M25.48,46.72c22.65-.03,45.31.02,67.95,0v16.19s-.79-.61-.79-.61c-6.6-16.65-32.28-14.71-36.21,2.8l-.69.73c-10.08,0-20.18.01-30.26,0l-.53-.25v-18.54l.53-.32Z"/>
      <path class="cls-2" d="M93.43,62.91c1.4,4.04,1.35,9.23,0,13.27-.14,1.44-.66,2.67-1.28,3.95.66.53,1.09,1.16,1.28,1.89,1.45,1.54,5.3,4.98,6.06,6.55,1.66,3.43-1.54,7.09-5.06,5.86-1.6-.56-4.66-3.89-6.04-5.24-1.15-.5-2.14-1.31-2.97-2.43-2.27,1.66-4.89,2.09-7.65,2.16-1.96.29-3.86.23-5.84.27-7.36-.51-13.51-6.1-15.89-12.95-.61-1.76-1.54-4.59-.57-6.16-.02-1.4.02-2.87.27-4.25,3.46-19.15,31.39-21.16,37.69-2.92Z"/>
      <path class="cls-1" d="M55.47,70.08c.12,6.92,4.07,13.51,10.17,16.77,2.06,1.1,4.13,1.56,6.28,2.34-15.45.29-30.99.02-46.45,0l-.53-.25v-18.54l.53-.32c9.99-.01,20,0,29.99,0Z"/>
      <path class="cls-6" d="M25.48,0v19.11c-8.49,0-16.99,0-25.48,0V0C8.49,0,16.99.02,25.48,0Z"/>
      <path class="cls-6" d="M25.48,23.37v19.11c-8.49,0-16.99,0-25.48,0v-19.11c8.49,0,16.99,0,25.48,0Z"/>
      <path class="cls-6" d="M25.48,46.72v19.11c-8.49,0-16.99,0-25.48,0v-19.11c8.49,0,16.99,0,25.48,0Z"/>
      <path class="cls-6" d="M25.48,70.08v19.11c-8.49,0-16.99,0-25.48,0v-19.11c8.49,0,16.99,0,25.48,0Z"/>
      <path class="cls-5" d="M88.39,89.19l-10.62-.27c2.8-.41,5.13-1.22,7.57-2.65.66.02,2.46,2.34,3.05,2.92Z"/>
      <path class="cls-3" d="M93.43,82.03c-.45-.47-1.84-1.32-1.85-1.98.5-1.24,1.44-2.6,1.85-3.85v5.84Z"/>
      <path class="cls-4" d="M72.93,56.62c18.37-2.21,20.29,24.44,3.61,26.17-17.59,1.83-19.82-24.22-3.61-26.17Z"/>
    </g>
  </g>
</svg>