<?xml version="1.0" encoding="UTF-8"?>
<svg id="Livello_2" data-name="Livello 2" xmlns="http://www.w3.org/2000/svg" viewBox="0 0 90.04 99.8">
  <defs>
    <style>
      .cls-1 {
        fill: #d8dce1;
      }

      .cls-2 {
        fill: #193658;
      }

      .cls-3 {
        fill: #3354a1;
      }
    </style>
  </defs>
  <g id="Livello_1-2" data-name="Livello 1">
    <g>
      <path class="cls-1" d="M62.12,2.34l.72,1.27c.11,2.42.1,4.84-.04,7.26-.31,4.56,2,5.21,5.88,5.34,2.28-.13,4.55-.15,6.82-.05l1.17.73c.97,1.07,2.07,1.52,2.32,3.27l.02,18.82-.9-.4c-9.77-13.13-30.81-8.26-33.41,8.15-2.43,15.31,14.51,26.76,27.88,18.81.84-.36,1.67-.01,2.47,1.06,1.42,1.21,3.37,3.19,3.96,4.86-.38,2.86.9,7.84-.93,10.12s-4.83,1.54-7.39,1.58l-2.5.38c-15.83.27-31.7.24-47.55.15-2.4-.01-4.53-2.13-4.54-4.54-.11-22.62-.14-45.28.15-67.89l.38-2.95c.05-3.44-.81-7.25,3.53-8.29l38.44-.02c1.98.22,2.3,1.25,3.51,2.34Z"/>
      <path class="cls-3" d="M16.64,8.32c-.34,23.6.26,47.23-.01,70.83.07,2.2,1.83,3.96,4.03,4.03,16.67-.2,33.37.23,50.04-.01-.12,2.3.55,5.15-1.16,7.03s-4.9,1.25-7.16,1.29l-2.17.38c-15.94.28-31.93.26-47.88.15-2.37-.02-4.52-2.17-4.53-4.54-.11-22.62-.14-45.28.15-67.89l.38-2.95c.03-2.33-.54-5.24,1.16-7.02,1.91-2,4.69-1.11,7.15-1.29Z"/>
      <path class="cls-2" d="M8.33,16.63c-.34,23.6.27,47.23-.01,70.83.03,2.2,1.89,3.91,4.03,4.03,16.67-.25,33.37.3,50.04-.01.07,3.46.59,7.55-3.79,8.29l-54.3.03c-2.62-.23-4.06-1.69-4.29-4.29V20.66c.53-4.59,4.8-4.11,8.33-4.03Z"/>
      <path class="cls-2" d="M79.01,38.98c2.66,4.14,3.69,9.48,2.74,14.31-.47,2.38-1.61,4.41-2.45,6.56l9.84,9.93c2.5,3.43-.63,7.91-4.68,6.49-1.29-.45-4.28-3.65-5.46-4.8-1.9-1.86-3.6-3.96-5.64-5.69-1.76.71-3.41,1.69-5.27,2.18-17.44,4.59-30.98-15.1-20.38-29.73,7.63-10.53,24.26-10.2,31.29.76Z"/>
      <path class="cls-3" d="M76.67,16.89c-4.02-1.27-13.63,2.16-14.29-4.03-.36-3.36.46-7.16-.26-10.53,4.86,4.41,10.14,9.7,14.55,14.55Z"/>
      <path class="cls-1" d="M62.07,36.72c16.77-1.4,18.71,24.26,2.26,25.65-17.08,1.44-19.17-24.23-2.26-25.65Z"/>
    </g>
  </g>
</svg>