<?xml version="1.0" encoding="UTF-8"?>
<svg id="Livello_1" data-name="Livello 1" xmlns="http://www.w3.org/2000/svg" viewBox="0 0 274.19 263.22">
  <defs>
    <style>
      .cls-1 {
        fill: #fbfcfd;
      }

      .cls-2 {
        fill: #193658;
      }

      .cls-3 {
        fill: #3354a1;
      }

      .cls-4 {
        fill: #d6dadf;
      }

      .cls-5 {
        fill: #d6dae0;
      }
    </style>
  </defs>
  <g>
    <path class="cls-4" d="M173.59,95.01c-6.29-10.75-13.55-16.78-26.45-18.25-16.42-1.87-44.85.18-44.71,21.9-.6-.06-1.22.05-1.82,0-.6-5.63-6.05-7.73-8.82-12.16C63.66,41.54,102.84-12.21,153.92,2.46c39.51,11.35,51.6,66.25,19.67,92.54ZM158.58,47.7c0-11.87-9.63-21.5-21.5-21.5s-21.5,9.63-21.5,21.5,9.63,21.5,21.5,21.5,21.5-9.63,21.5-21.5Z"/>
    <path class="cls-3" d="M173.59,95.01c.42.71-.42,2.94,0,3.65-5.82-1.02-10.48,5.65-14.6,7.3-12.58,5.05-31.16,5.04-43.79,0-3.7-1.48-7.5-6.76-12.77-7.3-.15-21.72,28.29-23.77,44.71-21.9,12.9,1.47,20.16,7.5,26.45,18.25Z"/>
    <path class="cls-2" d="M173.59,98.65c10.7,18.14,24.19,36.95,31.07,56.74-4.97,1.37-9.73,3.44-14.12,6.14l-31.54-55.59c4.12-1.65,8.78-8.31,14.6-7.3Z"/>
    <path class="cls-2" d="M102.43,98.65c5.28.54,9.07,5.82,12.77,7.3l-31.52,55.55c-4.53-2.79-9.45-4.9-14.59-6.27l31.51-56.57c.6.05,1.22-.06,1.82,0Z"/>
    <circle class="cls-1" cx="137.08" cy="47.7" r="21.5"/>
  </g>
  <g>
    <path class="cls-2" d="M167.63,189.71c-1.92,5.33-3,10.93-3.21,16.59h-54.61c-.2-5.67-1.29-11.27-3.21-16.61h61.03Z"/>
    <g>
      <path class="cls-4" d="M69.1,155.23c5.14,1.37,10.06,3.49,14.59,6.27,10.62,6.53,18.7,16.47,22.91,28.2,1.92,5.34,3,10.94,3.21,16.61.6,16.59-6.34,32.56-18.87,43.44-7.66-27.14-64.35-27.02-71.95.07C-.36,233.07-5.59,205.19,6.39,182.58c11.98-22.61,37.98-33.95,62.71-27.35ZM76.38,201.02c0-11.82-9.59-21.41-21.41-21.41s-21.41,9.59-21.41,21.41,9.59,21.41,21.41,21.41,21.41-9.59,21.41-21.41Z"/>
      <path class="cls-3" d="M90.94,249.75c-20.63,17.92-51.29,17.95-71.95.07,7.6-27.09,64.29-27.21,71.95-.07Z"/>
      <circle class="cls-1" cx="54.97" cy="201.02" r="21.41"/>
    </g>
    <g>
      <path class="cls-5" d="M255.22,249.82c-8.15-26.91-64.02-27.38-71.96-.08-12.52-10.89-19.45-26.86-18.84-43.44.21-5.66,1.29-11.26,3.21-16.59,4.22-11.72,12.3-21.65,22.9-28.17,4.4-2.7,9.15-4.77,14.12-6.14,24.74-6.84,50.91,4.38,63.02,27s6.94,50.62-12.47,67.42ZM240.6,201.02c0-11.82-9.59-21.41-21.41-21.41s-21.41,9.59-21.41,21.41,9.59,21.41,21.41,21.41,21.41-9.59,21.41-21.41Z"/>
      <path class="cls-3" d="M255.22,249.82c-20.66,17.89-51.33,17.85-71.96-.08,7.94-27.3,63.81-26.83,71.96.08Z"/>
      <circle class="cls-1" cx="219.19" cy="201.02" r="21.41"/>
    </g>
  </g>
</svg>