<?xml version="1.0" encoding="UTF-8"?>
<svg id="Livello_2" data-name="Livello 2" xmlns="http://www.w3.org/2000/svg" viewBox="0 0 112.89 112.78">
  <defs>
    <style>
      .cls-1 {
        fill: #d8dce1;
      }

      .cls-2 {
        fill: #193658;
      }

      .cls-3 {
        fill: #fff;
      }

      .cls-4 {
        fill: #3354a1;
      }
    </style>
  </defs>
  <g id="Livello_1-2" data-name="Livello 1">
    <g>
      <path class="cls-1" d="M30.29,34.67c-14.87,14.88-12.6,39.92,4.7,51.81,22.61,15.54,53.08-.79,53.08-27.85h20.3c.1,27.52-20.98,51.02-48.34,53.84C9.5,117.67-19.9,56.58,15.64,20.58c.17-.14.46-.33.58-.23,4.73,4.3,9.74,9.12,14.23,13.68l-.15.64Z"/>
      <path class="cls-4" d="M112.88,54.12h-20.3c.28-18.4-15.45-34.11-33.83-33.83V0c29.57-.31,54.34,24.58,54.12,54.12Z"/>
      <path class="cls-4" d="M70.22,74.6c-11.45,11.54-31.44,7.13-37.04-8.01-7.06-19.08,12.46-36.94,30.84-28.31,13.94,6.55,17.03,25.38,6.2,36.31Z"/>
      <path class="cls-2" d="M15.64,20.58C25.65,10.43,39.92,4.45,54.25,4.51v20.3c-8.79-.1-17.77,3.68-23.96,9.87l-14.66-14.09Z"/>
      <path class="cls-3" d="M55.94,44.54v3.95c0,.29,4.4.95,5.23,2.25.33.52-1.71,2.88-2.27,3.31-1.65-1.11-6.57-3.04-7.36-.21-.6,2.14,5.9,3.41,7.51,4.37,3.9,2.32,3.81,7.9.09,10.25-.7.44-2.95.98-3.07,1.16-.39.55.02,2.61-.12,3.4h-3.22c-.46-.06.07-3.33-.19-3.64-.12-.14-2.78-.72-3.54-1.11-.95-.48-1.75-1.26-2.62-1.88l2.25-3.25c1.69,1.05,3.45,2.41,5.54,2.51,1.75.09,3.28-.68,2.91-2.64-.44-2.33-8.06-2.31-9.69-5.82-1.26-2.71-.34-6.27,2.27-7.82.63-.37,2.79-.8,2.89-.91.9-1.04-2.07-4.97,3.41-3.92Z"/>
    </g>
  </g>
</svg>