<?xml version="1.0" encoding="UTF-8"?>
<svg id="Livello_2" data-name="Livello 2" xmlns="http://www.w3.org/2000/svg" viewBox="0 0 96.19 95.33">
  <defs>
    <style>
      .cls-1 {
        fill: #d8dce1;
      }

      .cls-2 {
        fill: #193658;
      }
    </style>
  </defs>
  <g id="Livello_1-2" data-name="Livello 1">
    <g>
      <rect class="cls-1" x="29" y="3.25" width="67.2" height="13.01"/>
      <rect class="cls-1" x="29" y="40.1" width="67.2" height="13.01"/>
      <rect class="cls-1" x="29" y="76.95" width="67.2" height="13.01"/>
      <path class="cls-2" d="M8.4,53.92h8.4v3.79H1.63c.13-.95-.25-2.39.14-3.25.83-1.8,5.36-5.33,6.9-7.19.94-1.13,2.56-3.31,2.4-4.8-.33-2.97-3.8-3.32-4.7-.48-.14.43-.06,1.36-.13,1.36H1.36c-.15-3.5,2.91-6.74,6.36-7.06,5.17-.47,9.22,1.32,8.52,7.16-.49,4.04-5.63,7.25-7.83,10.46Z"/>
      <path class="cls-2" d="M.55,79.12c-.13-7.01,13.03-7.45,14.5-1.63.81,3.2-.46,4.94-2.85,6.78,2.63.95,3.54,3.15,3.25,5.83-.78,7.22-15.77,7.03-15.44-.95h4.88c.08,0,.27,1.16.63,1.54,1.84,2,6.09.46,5.21-2.91-.67-2.56-3.28-1.8-5.29-1.89v-3.79c1.89-.03,4.93.19,5.16-2.3.19-2.13-1.05-3.16-3.11-2.83s-1.62,2.15-1.78,2.15H.55Z"/>
      <path class="cls-2" d="M12.2,0v20.86h-5.42V5.15l-4.06,1.35c.14-.78-.26-2.69.12-3.26.27-.41,8.22-2.79,9.36-3.24Z"/>
    </g>
  </g>
</svg>