<?xml version="1.0" encoding="UTF-8"?>
<svg viewBox="0 0 24 24" width={_themeGet('sizes', props.size) || '24'} height={_themeGet('sizes', props.size) || '24'} xmlns="http://www.w3.org/2000/svg">
			<path fill={_themeGet('colors', props.fill) || 'currentColor'} d="m2,11.75c0,-0.4142 0.33579,-0.75 0.75,-0.75l3.5,0c0.41421,0 0.75,0.3358 0.75,0.75c0,0.4142 -0.33579,0.75 -0.75,0.75l-3.5,0c-0.41421,0 -0.75,-0.3358 -0.75,-0.75zm7.5,0c0,-0.4142 0.33579,-0.75 0.75,-0.75l3.5,0c0.4142,0 0.75,0.3358 0.75,0.75c0,0.4142 -0.3358,0.75 -0.75,0.75l-3.5,0c-0.41421,0 -0.75,-0.3358 -0.75,-0.75zm7.5,0c0,-0.4142 0.3358,-0.75 0.75,-0.75l3.5,0c0.4142,0 0.75,0.3358 0.75,0.75c0,0.4142 -0.3358,0.75 -0.75,0.75l-3.5,0c-0.4142,0 -0.75,-0.3358 -0.75,-0.75z" />
		</svg>