<?xml version="1.0" encoding="UTF-8"?>
<svg id="Livello_2" data-name="Livello 2" xmlns="http://www.w3.org/2000/svg" viewBox="0 0 108.43 108.88">
  <defs>
    <style>
      .cls-1 {
        fill: #d8dce1;
      }

      .cls-2 {
        fill: #193658;
      }

      .cls-3 {
        fill: #fff;
      }
    </style>
  </defs>
  <g id="Livello_1-2" data-name="Livello 1">
    <g>
      <path class="cls-1" d="M81.42,91.75l-44.76.12-12.99,17L0,84.65l18.22-17.99c5.3-4.52,6.94-2.99,13.02-3.75,8.85-1.11,19.55-6.38,28.4-7.5,2.58-.33,4.57.01,6.08,2.3,1.83,2.75.57,7.11-2.7,8.15l-17.73,6.25,31.61,3.25.77-.43,17.79-18.1c2.34-1.9,4.84-2.96,7.93-2.65,1.28.12,5.71,1.51,4.94,3.15l-26.92,34.45Z"/>
      <path class="cls-2" d="M75.84.1c21.14-1.83,35.22,21.55,24.02,39.61-9.74,15.69-33.1,16.08-43.32.7C45.54,23.89,56.13,1.81,75.84.1Z"/>
      <polygon class="cls-3" points="80.31 18.85 80.31 35.32 87.37 35.32 87.37 40.03 68.54 40.03 68.54 35.32 75.6 35.32 75.6 23.55 70.89 23.55 70.89 18.85 80.31 18.85"/>
      <path class="cls-3" d="M76.12,9.49c4.91-.8,5.62,6.55,1.06,6.98s-5.3-6.3-1.06-6.98Z"/>
    </g>
  </g>
</svg>