<?xml version="1.0" encoding="UTF-8"?>
<svg id="Livello_2" data-name="Livello 2" xmlns="http://www.w3.org/2000/svg" viewBox="0 0 107.58 112.2">
  <defs>
    <style>
      .cls-1 {
        fill: #d8dce1;
      }

      .cls-2 {
        fill: #193658;
      }

      .cls-3 {
        fill: #3354a1;
      }
    </style>
  </defs>
  <g id="Livello_1-2" data-name="Livello 1">
    <g>
      <path class="cls-3" d="M43.03,21.83c0,.21-.06.54-.19.54-12.6.18-25.61.18-38.21,0l-.33-.54c-.08-5.67-.64-14.14,0-19.5.15-1.31.94-2.04,2.28-2.02,11.02.77,23.32-.97,34.18,0,1.22.11,2,.47,2.26,1.78-.05,6.58.13,13.18.02,19.75Z"/>
      <path class="cls-3" d="M103.28,21.83c0,.21-.06.54-.19.54-12.6.18-25.61.18-38.21,0l-.33-.54c-.08-5.67-.64-14.14,0-19.5.15-1.31.94-2.04,2.28-2.02,11.02.77,23.32-.97,34.18,0,1.22.11,2,.47,2.26,1.78-.05,6.58.13,13.18.02,19.75Z"/>
      <path class="cls-3" d="M73.15,97.14c0,.21-.06.54-.19.54-11.86.17-24.52.35-36.39,0-1.08.19-1.8,0-2.15-.54-.08-5.67-.64-14.14,0-19.5.15-1.31.94-2.04,2.28-2.02,11.02.77,23.32-.97,34.18,0,1.22.11,2,.47,2.26,1.78-.05,6.58.13,13.18.02,19.75Z"/>
      <path class="cls-2" d="M43.03,21.83c-.03,1.68.58,5.74-1.33,6.33-4.57.24-9.16.1-13.73.12-2.87.68-5.73.68-8.61,0-4.57-.02-9.16.12-13.73-.12-1.97-.62-1.3-4.58-1.33-6.33h38.73Z"/>
      <path class="cls-2" d="M103.28,21.83c-.03,1.68.58,5.74-1.33,6.33-4.57.24-9.16.1-13.73.12-2.87.68-5.73.68-8.61,0-4.57-.02-9.16.12-13.73-.12-1.97-.62-1.3-4.58-1.33-6.33h38.73Z"/>
      <path class="cls-2" d="M73.15,97.14c-.03,1.68.58,5.74-1.33,6.33-4.57.24-9.16.1-13.73.12-2.87.68-5.73.68-8.61,0-4.57-.02-9.16.12-13.73-.12-1.97-.62-1.3-4.58-1.33-6.33h38.73Z"/>
      <path class="cls-3" d="M26.89,50.61c.89.52,2.63,2.55,2.96,3.5,1.19.23.88,2.5.67,3.51-.25,1.18-.7,2.76-2.02,2.95-2.54,2.8-7.15,2.8-9.68,0-1.32-.19-1.77-1.76-2.02-2.95-.21-1.01-.52-3.28.67-3.51.33-.95,2.07-2.98,2.96-3.5.69-1.87,5.76-1.87,6.45,0Z"/>
      <path class="cls-3" d="M59.98,54.11c.14.02.28.05.41.11,1.03.45.23,6.41-1.76,6.34-.2.23-1.36,1.2-1.61,1.34-.17,1.18-2.01,1.33-3.09,1.35s-3.17-.11-3.36-1.35c-.26-.14-1.42-1.12-1.61-1.34-1.99.07-2.79-5.89-1.76-6.34.13-.06.27-.09.41-.11,1.92-5.59,10.45-5.59,12.37,0Z"/>
      <path class="cls-3" d="M87.14,50.61c.89.52,2.63,2.55,2.96,3.5,1.19.23.88,2.5.67,3.51-.25,1.18-.7,2.76-2.02,2.95-2.54,2.8-7.15,2.8-9.68,0-1.32-.19-1.77-1.76-2.02-2.95-.21-1.01-.52-3.28.67-3.51.33-.95,2.07-2.98,2.96-3.5.69-1.87,5.76-1.87,6.45,0Z"/>
      <path class="cls-3" d="M27.97,28.29v4.3h4.98c1.52,0,1.67,3.22,1.48,4.3H12.91c-.19-1.08-.04-4.3,1.48-4.3h4.98v-4.3c2.86.01,5.74.01,8.61,0Z"/>
      <path class="cls-3" d="M88.22,28.29v4.3h4.98c1.52,0,1.67,3.22,1.48,4.3h-21.52c-.19-1.08-.04-4.3,1.48-4.3h4.98v-4.3c2.86.01,5.74.01,8.61,0Z"/>
      <path class="cls-3" d="M58.09,103.59v4.3h4.98c1.52,0,1.67,3.22,1.48,4.3h-21.52c-.19-1.08-.04-4.3,1.48-4.3h4.98v-4.3c2.86.01,5.74.01,8.61,0Z"/>
      <path class="cls-1" d="M47.6,54.11c-.73,2.12-.11,4.78,1.34,6.45h-20.44c1.47-1.62,2.06-4.38,1.34-6.45h17.75Z"/>
      <path class="cls-1" d="M77.73,54.11c-.71,2.08-.12,4.83,1.34,6.45h-20.44c1.46-1.67,2.07-4.33,1.34-6.45h17.75Z"/>
      <path class="cls-1" d="M17.48,54.11c-.71,2.08-.12,4.83,1.34,6.45H0v-6.45h17.48Z"/>
      <path class="cls-1" d="M90.1,54.11h17.48v6.45h-18.83c1.47-1.62,2.06-4.38,1.34-6.45Z"/>
      <path class="cls-1" d="M20.44,50.61v-9.41h6.45v9.41c-1.88-1.08-4.58-1.08-6.45,0Z"/>
      <path class="cls-1" d="M80.68,50.61v-9.41h6.45v9.41c-1.88-1.08-4.58-1.08-6.45,0Z"/>
      <path class="cls-1" d="M57.02,61.91v9.41h-6.45v-9.41c1.92,1.09,4.53,1.09,6.45,0Z"/>
    </g>
  </g>
</svg>