<?xml version="1.0" encoding="UTF-8"?>
<svg id="Livello_2" data-name="Livello 2" xmlns="http://www.w3.org/2000/svg" viewBox="0 0 103.18 91.98">
  <defs>
    <style>
      .cls-1 {
        fill: #d8dce1;
      }

      .cls-2 {
        fill: #193658;
      }

      .cls-3 {
        fill: #3354a1;
      }

      .cls-4 {
        fill: #2c4e94;
      }
    </style>
  </defs>
  <g id="Livello_1-2" data-name="Livello 1">
    <g>
      <path class="cls-1" d="M101.73,17.09c.85.87,1.43,1.62,1.41,2.93-.2,22.98.35,46.03-.28,68.96-.53,1.23-1.43,2.13-2.66,2.66-32.35.44-64.91.44-97.26,0-1.63-.7-2.89-2.24-2.94-4.07V20.03c.01-1.42.67-2.33,1.69-3.21l.62-.23,47.41,37.09c1.37.82,3,.69,4.3-.21l46.19-36.19c.53-.48.91-.67,1.52-.18Z"/>
      <path class="cls-3" d="M29.99,15.69c.24.08.24.17,0,.28l1.21.42,20.39,20.41,20.35-20.41,1.21-.42c-.24-.08-.24-.17,0-.28,8.64,0,17.28,0,25.92,0,1.42.16,1.76.47,2.66,1.4-.68.14-1.27.71-1.81,1.13-15.27,11.8-30.3,23.9-45.57,35.69-1.51,1.04-3.34,1.18-4.94.22L1.69,16.81c.85-.73,1.15-.99,2.38-1.12,8.64,0,17.29,0,25.92,0Z"/>
      <path class="cls-2" d="M42.6,15.69V0h17.93v15.69c4.24-.03,8.45.07,12.61.28l-21.01,21.17-.67.39L29.99,15.97c4.1-.21,8.3-.3,12.61-.28Z"/>
      <polygon class="cls-4" points="42.6 15.69 29.99 15.97 29.99 15.69 42.6 15.69"/>
      <polygon class="cls-4" points="73.15 15.69 73.15 15.97 60.54 15.69 73.15 15.69"/>
    </g>
  </g>
</svg>