<?xml version="1.0" encoding="UTF-8"?>
<svg style={{ width: "100%", height: "auto", justifyContent: "center", alignContent: "center" }} version="1.0" xmlns="http://www.w3.org/2000/svg" viewBox="0 0 1024.000000 1024.000000" preserveAspectRatio="xMidYMid meet">
				<g transform="translate(0.000000,1024.000000) scale(0.100000,-0.100000)"
					fill="#000000" stroke="none">
					<path d="M5072 8497 c-46 -26 -53 -50 -55 -180 l-2 -122 -1194 -2 c-1101 -1
-1198 -3 -1239 -19 -56 -21 -115 -73 -150 -133 l-27 -46 -5 -1488 -5 -1489
-57 -23 c-149 -60 -284 -196 -358 -357 -27 -61 -56 -180 -62 -257 -3 -34 -4
-35 -68 -48 -142 -28 -262 -119 -323 -243 -30 -61 -32 -71 -32 -175 0 -103 2
-114 32 -177 53 -113 149 -200 260 -239 54 -18 90 -19 857 -19 l801 1 66 22
c173 59 302 187 360 359 14 42 19 85 19 163 l0 105 335 0 c249 0 335 -3 335
-12 0 -6 -65 -147 -145 -312 -79 -166 -279 -584 -444 -931 l-300 -630 -228 -5
c-125 -3 -236 -9 -245 -13 -45 -23 -65 -102 -38 -152 31 -59 -93 -55 1926 -55
l1856 0 34 34 c39 39 45 89 17 136 -26 45 -50 50 -236 50 l-172 1 -77 162
c-43 89 -215 450 -384 802 -168 352 -337 704 -374 783 l-69 142 979 0 978 0
63 33 c68 35 120 97 139 165 6 25 10 642 10 1842 0 1793 -1 1805 -21 1850 -27
60 -83 117 -144 146 l-50 24 -1202 0 -1203 0 0 128 c0 105 -3 131 -18 148 -35
43 -94 56 -140 31z m2548 -549 c20 -33 20 -56 20 -1796 l0 -1763 -25 -24 -24
-25 -1893 0 -1893 0 -19 28 c-33 47 -137 131 -200 162 -80 37 -134 49 -226 50
l-75 0 -17 48 c-45 125 -177 268 -313 339 -94 48 -174 71 -270 76 l-70 4 -3
1424 c-1 783 0 1434 3 1447 3 12 14 31 25 42 20 20 44 20 2490 20 l2470 0 20
-32z m-4839 -3138 c159 -49 275 -175 328 -357 30 -102 36 -105 192 -97 120 7
128 6 180 -18 78 -36 124 -80 161 -156 98 -199 -3 -422 -217 -477 -89 -23
-1517 -23 -1572 0 -148 62 -198 230 -101 341 54 62 99 78 218 81 57 1 114 7
126 14 36 19 48 61 41 145 -8 107 7 186 53 281 60 122 169 212 301 247 81 22
214 20 290 -4z m2240 -812 c1 -73 2 -499 3 -945 l1 -813 -557 0 c-307 0 -558
2 -558 5 0 3 20 46 45 96 25 50 106 217 179 372 74 155 175 367 225 470 50
103 109 225 130 270 94 201 304 644 312 660 8 14 25 17 114 17 l105 0 1 -132z
m516 -65 c52 -109 128 -268 168 -353 64 -138 287 -600 553 -1152 l91 -188
-560 0 -559 0 0 945 0 945 106 0 105 0 96 -197z"/>
					<path d="M4897 7304 c-93 -17 -248 -73 -335 -121 -294 -162 -513 -459 -588
-798 -25 -109 -29 -332 -10 -442 66 -378 319 -714 658 -873 333 -156 770 -143
1078 33 259 147 467 402 549 672 49 158 67 400 42 555 -80 496 -469 887 -970
975 -104 19 -319 18 -424 -1z m370 -209 c214 -35 417 -144 565 -304 380 -410
331 -1057 -106 -1407 -159 -127 -336 -192 -551 -201 -287 -12 -519 73 -708
260 -135 133 -218 277 -269 465 -29 109 -31 345 -4 452 73 286 252 514 502
642 187 95 373 125 571 93z"/>
					<path d="M5450 6749 c-14 -5 -36 -25 -49 -44 -13 -20 -27 -34 -30 -33 -3 2
-37 19 -76 38 -67 34 -74 35 -180 35 -100 0 -115 -2 -167 -28 -113 -56 -203
-180 -233 -324 -20 -91 -19 -355 0 -447 8 -37 29 -99 46 -137 l32 -69 -42 -59
c-46 -66 -50 -92 -21 -121 32 -32 64 -25 107 24 l38 43 35 -24 c105 -72 285
-83 405 -24 108 54 181 154 221 306 15 56 19 107 19 255 0 202 -7 249 -58 362
-32 74 -32 72 17 140 34 47 38 76 12 96 -19 16 -50 21 -76 11z m-221 -217 c14
-11 26 -28 25 -38 0 -11 -52 -100 -115 -199 -63 -99 -137 -217 -163 -262 -26
-46 -52 -83 -57 -83 -5 0 -8 3 -7 8 1 4 -2 59 -6 123 -14 201 22 365 94 434
56 54 170 62 229 17z m124 -387 c1 -142 -17 -255 -48 -314 -37 -71 -124 -119
-197 -107 -47 8 -117 41 -124 60 -4 11 186 335 315 536 l35 55 9 -45 c5 -25
10 -108 10 -185z"/>
					<path d="M6862 6925 c-39 -17 -66 -72 -57 -115 17 -76 121 -109 179 -55 21 19
26 33 26 70 0 59 -13 83 -55 101 -42 17 -51 17 -93 -1z"/>
					<path d="M7210 6927 c-25 -9 -40 -23 -54 -51 -17 -36 -18 -43 -5 -79 20 -56
71 -83 128 -67 50 13 74 46 73 100 -1 50 -15 76 -52 95 -34 18 -43 18 -90 2z"/>
					<path d="M7600 3614 c-40 -27 -50 -45 -50 -92 0 -119 162 -142 200 -28 29 88
-74 170 -150 120z"/>
					<path d="M7955 3621 c-33 -14 -56 -47 -62 -90 -5 -36 -2 -44 30 -76 29 -29 42
-35 77 -35 58 0 100 41 100 100 0 52 -13 76 -50 95 -32 16 -64 18 -95 6z"/>
					<path d="M2010 2817 c-14 -7 -32 -28 -42 -47 -33 -71 7 -144 85 -155 23 -4
158 -5 300 -3 l259 3 29 33 c41 46 41 111 0 153 l-29 29 -289 0 c-209 0 -295
-4 -313 -13z"/>
				</g>
			</svg>