<?xml version="1.0" encoding="UTF-8"?>
<svg id="Livello_2" data-name="Livello 2" xmlns="http://www.w3.org/2000/svg" viewBox="0 0 125.88 128.26">
  <defs>
    <style>
      .cls-1 {
        fill: #d8dce1;
      }

      .cls-2 {
        fill: #193658;
      }

      .cls-3 {
        fill: #fff;
      }

      .cls-4 {
        fill: #5b6f88;
      }

      .cls-5 {
        fill: #3354a1;
      }

      .cls-6 {
        fill: #5d718a;
      }
    </style>
  </defs>
  <g id="Livello_1-2" data-name="Livello 1">
    <g>
      <path class="cls-1" d="M76,107.94c-.66-.08-.63-.4,0-.65l-.58-1.09c.27-8.48,5.34-14.7,10.43-20.93,17.45-20.72,1.78-52.86-25.72-50.39-13.78,1.24-24.64,12.11-26.97,25.57-2.3,13.29,3.73,21.34,11.71,31.02,3.58,4.7,5.41,10.42,5.01,15.83.98.02.91.76,0,.98-1.73-.59-3.54-1.09-5.22-1.8-2.37-1-4.58-2.58-6.96-3.38l-9.71,9.57c-1.48.93-2.89.69-4.24-.31-1.81-1.34-8.94-8.48-10.28-10.28-.97-1.31-1.17-2.53-.44-4.05l9.45-9.5c.29-.27.31-.54.26-.91-.15-1.03-2.45-4.73-3.05-6.13-1.1-2.61-1.86-5.33-2.77-8.01-.76-.53-11.17.09-13.24-.14s-3.19-1.4-3.44-3.42c-.36-2.97-.33-11.05,0-14.04.19-1.72,1.11-3.03,2.85-3.35,2.08-.38,13.44.38,13.98-.39.19-.28,1.17-4.63,1.54-5.64,1.11-3.09,2.97-5.86,4.12-8.83l-9.57-9.71c-.93-1.48-.69-2.89.31-4.24,1.47-1.98,8.11-8.55,10.12-10.12,1.4-1.09,2.51-1.4,4.21-.6l9.5,9.45.66.3c2.72-1.14,5.27-2.65,8.01-3.74,1.15-.46,5.74-1.61,6.21-1.96.37-.27.29-.59.34-.97.49-3.92-.63-9.16.06-13,.23-1.29,1.28-2.38,2.52-2.7,1.91-.5,12.55-.42,14.86-.15,1.88.21,3.13,1.22,3.4,3.13.31,2.15-.38,12.78.17,13.54,2.62.7,5.18,1.39,7.68,2.44,1.32.55,5.78,3.27,6.45,3.38.37.06.65.02.92-.26l9.5-9.45c1.17-.61,2.58-.57,3.7.14,1.22.76,9.63,9.23,10.63,10.59s1.23,2.76.31,4.24l-9.57,9.71c.97,2.91,2.65,5.59,3.79,8.5.43,1.1,1.54,5.53,1.87,5.97.27.37.59.29.97.34,3.92.49,9.16-.63,13,.06,1.47.26,2.6,1.58,2.83,3.05.43,2.76.31,11.09.03,14.03-.19,2.03-1.01,3.41-3.14,3.71s-12.73-.39-13.54.17c-.78,2.58-1.4,5.19-2.43,7.69-.55,1.33-3.27,5.75-3.38,6.45-.06.37-.02.65.26.92l9.45,9.5c.73,1.51.53,2.73-.44,4.05-1.34,1.81-8.48,8.94-10.28,10.28-1.35,1-2.76,1.23-4.24.31l-9.71-9.57c-4.08,1.38-7.77,4.15-12.17,4.85Z"/>
      <path class="cls-5" d="M76,107.29c-.01.22.01.44,0,.65-.18,3.73.61,9.75-.16,13.07-.58,2.51-3.71,1.89-5.72,1.95-.32.18-.65.34-1,.46-1.68.58-10.69.58-12.37,0-.34-.12-.67-.28-1-.46-2-.06-5.13.56-5.72-1.95-.77-3.31.05-9.05-.16-12.74-.02-.26.06-.9,0-.98l.3-.65h25.42l.39.65Z"/>
      <path class="cls-2" d="M70.13,122.95c-.74,1.13-1.9,4.04-2.96,4.72-1.25.81-7.42.82-8.64-.14-.96-.75-2.02-3.47-2.77-4.58,4.67.13,9.69.13,14.36,0Z"/>
      <path class="cls-3" d="M76,107.29h-26.12s-.57.13-.66-.21c-.22-.84.12-2.49,0-3.53-1.37-12.09-12.82-18.08-15.97-29.08-5.42-18.94,7.93-39.2,27.88-40.31,25.78-1.43,41.68,27.34,27.35,48.57-6.24,9.24-11.74,12.21-12.48,24.57Z"/>
      <path class="cls-2" d="M62.62,59.62c.02,1.72-.33,3.66-.33,5.06v4.73h11.75c-3.14,6.6-7.03,12.81-10.45,19.26-.78.3-.57-1.6-.33-2.29-.04-3.07.41-6.07.33-9.14h-11.75c3.39-6.79,6.93-13.52,10.45-20.24l.33-.09c.12.9.11,1.8,0,2.7Z"/>
      <path class="cls-4" d="M62.62,59.62c0-.82.26-2.07-.33-2.61.18-.35.19-1.04.65-.98l-.32,3.59Z"/>
      <path class="cls-6" d="M63.6,88.68c-.23.44-.22,1.09-.65.98.14-1.02-.37-2.49.32-3.26,0,.72-.24,1.84.33,2.29Z"/>
    </g>
  </g>
</svg>