<?xml version="1.0" encoding="UTF-8"?>
<svg id="Livello_2" data-name="Livello 2" xmlns="http://www.w3.org/2000/svg" viewBox="0 0 92.94 109.08">
  <defs>
    <style>
      .cls-1 {
        fill: #d8dce1;
      }

      .cls-2 {
        fill: #193658;
      }

      .cls-3 {
        fill: #fff;
      }

      .cls-4 {
        fill: #3354a1;
      }
    </style>
  </defs>
  <g id="Livello_1-2" data-name="Livello 1">
    <g>
      <path class="cls-1" d="M92.94,11.55v64.04c0,8.45-7.58,15.91-14.62,19.37-10.34,5.07-21.49,9.23-31.95,14.12-10.25-4.97-20.95-9.1-31.17-14.12-7.35-3.61-15.2-10.66-15.2-19.66V11.55c16.26.15,32.21-4.19,46.57-11.55,14.27,7.34,30.25,11.41,46.37,11.55Z"/>
      <path class="cls-2" d="M79,53.38c-.02,6.42.62,14.59,0,20.76-.36,3.54-3.01,6.71-6.28,7.95l-26.24,11.66c-.57-13.45-.57-26.92,0-40.37l.2-.58h31.97l.35.58Z"/>
      <path class="cls-3" d="M46.47,53.38v40.37l-27.65-12.57c-2.69-1.29-4.58-4.06-4.87-7.04-.61-6.21.02-14.32,0-20.76,10.84-.57,21.69-.57,32.53,0Z"/>
      <path class="cls-3" d="M46.47,15.62c10.5,4.1,21.29,7.42,32.49,9.04.05,9.56.07,19.15.04,28.71h-32.53c-.23,0-.58-.06-.58-.2-.19-11.32-.23-23.24,0-34.61-.21-1.28-.02-2.27.58-2.95Z"/>
      <path class="cls-4" d="M46.47,15.62v37.76H13.94c-.03-9.49-.08-18.99.13-28.48,11.2-1.63,22.03-4.84,32.4-9.27Z"/>
    </g>
  </g>
</svg>