<?xml version="1.0" encoding="UTF-8"?>
<svg id="Livello_2" data-name="Livello 2" xmlns="http://www.w3.org/2000/svg" viewBox="0 0 117.12 102.72">
  <defs>
    <style>
      .cls-1 {
        fill: #193658;
      }

      .cls-2 {
        fill: #fff;
      }
    </style>
  </defs>
  <g id="Livello_1-2" data-name="Livello 1">
    <g>
      <path class="cls-1" d="M56.97.16c1.63-.36,3.72-.16,4.94,1.03l54.45,93.97c2.03,3.42-.24,7.39-4.17,7.55H4.98c-3.87-.15-6.33-4.19-4.17-7.55C19.17,65.49,34.94,33.47,53.45,3.98c.85-1.36,1.79-3.43,3.52-3.81Z"/>
      <path class="cls-2" d="M57.28,34.37c4.58-.78,7.52,2.15,8.03,6.51l-3.75,32.28c-.81,3.81-5.08,3.96-5.96,0l-3.76-32.3c.13-3.05,2.38-5.97,5.44-6.49Z"/>
      <path class="cls-2" d="M57.59,80.79c6.87-1.11,7.88,8.67,1.99,9.62-6.87,1.11-7.88-8.67-1.99-9.62Z"/>
    </g>
  </g>
</svg>