<?xml version="1.0" encoding="UTF-8"?>
<svg id="Livello_2" data-name="Livello 2" xmlns="http://www.w3.org/2000/svg" viewBox="0 0 112.81 104.32">
  <defs>
    <style>
      .cls-1 {
        fill: #d8dce1;
      }

      .cls-2 {
        fill: #193658;
      }

      .cls-3 {
        fill: #3354a1;
      }

      .cls-4 {
        fill: #193659;
      }
    </style>
  </defs>
  <g id="Livello_1-2" data-name="Livello 1">
    <g>
      <path class="cls-1" d="M33.04,47.67c1.86.01,3.73,0,5.58,0,.1,13.67,15.06,22.52,27.01,15.41,5.37-3.2,8.83-9.1,8.84-15.41,1.07,0,2.16.02,3.23,0,2.87-.71,5.8-.7,8.74-.64,8.73-.11,17.57-.19,26.23.64-.05,2.95,1.16,8.94-2.79,9.41-1.82.22-11.6-.33-12.16.03-.83,3.34-1.91,6.57-3.41,9.67-.49,1.01-2.28,3.02-1.64,3.97l8.5,8.55c.73,1.42.35,2.84-.55,4.08-1.19,1.61-6.88,7.28-8.51,8.53-1.72,1.33-3.07,1.45-4.85.14-1.56-1.14-7.39-7.96-8.29-8.19-2.57.99-5.01,2.4-7.65,3.41-.97.37-4.99,1.4-5.37,1.68-.33.24-.26.53-.3.87-.43,3.46.67,8.82-.05,12-.3,1.33-1.75,2.16-3.01,2.28-2.93.27-9.48.31-12.36-.01-1.69-.19-2.81-1.1-3.06-2.82-.28-1.96.35-11.46-.16-12.19-2.32-.7-4.67-1.26-6.92-2.19-1.2-.5-5.18-2.95-5.8-3.04-.34-.05-.58-.02-.83.24l-8.55,8.5c-1.21.6-2.4.5-3.49-.26-1.39-.97-8.34-7.96-9.41-9.4-.9-1.21-1.11-2.48-.27-3.81l8.62-8.74c-.87-2.62-2.39-5.03-3.41-7.65-.39-.99-1.39-4.97-1.68-5.37-.24-.33-.53-.26-.87-.3-2.97-.37-10.63.76-12.77-.45S.05,49.99.13,47.67c10.92-.89,22-.98,32.91,0Z"/>
      <path class="cls-3" d="M77.71,47.67c-.39-2.62.57-5.05.85-7.53.57-5.04.61-11.62,2.83-16.27,1.61-3.37,4.81-2.92,7.91-4.12,2.23,6.1,9.95,5.93,12.38.03,4.05,1.33,6.5.73,8.36,5.11,2.83,6.66,2.76,15.78,2.64,22.78-11.65.13-23.32-.17-34.97,0Z"/>
      <path class="cls-3" d="M53.9,30.92l.65.13,1.91,7.05,1.78-6.03c.22-.46.54-.84.95-1.14,1.14-3.69,2.31-7.38,3.52-11.05.24-.17,5.06,1.18,5.65,1.44,2.88,1.29,4.03,6.96,4.55,9.85.96,5.28,1.16,10.85,1.27,16.22h-34.97c-.03-4.92.25-9.91.93-14.79.44-3.15,1.4-10.18,4.49-11.67.74-.36,5.27-1.66,5.76-1.33s3.08,9.89,3.51,11.33Z"/>
      <path class="cls-3" d="M.13,47.67c.19-5.81,1.01-15.99,3.3-21.24,1.75-4.01,6.02-2.35,9.63-3.15.29.24-1.33,6.38-1.18,7.48.09.72,1.72,1.65,2.36,2.22l.57-.27c1.22,2.01,2.37,2.05,3.44.14l.69.13c.64-.58,1.93-1.08,2.06-1.93.26-1.63-.99-5.64-1.18-7.48.32-.22,6.95.44,7.72.65,2.88.79,4.13,8.14,4.53,10.75.64,4.18.83,8.47.97,12.7-10.97-.06-21.95.05-32.91,0Z"/>
      <path class="cls-3" d="M19.52,19.75l-.1-.66c1.84-1.77,2.82-4.39,3.06-6.89-3.37-.1-6.59-1.8-8.87-4.2-5.32,1.41-2.45,8.27.1,11.06l-.06.69c-1.34-.24-6.37.57-6.92-.59.93-6.08-.22-16.56,8.02-17.85,10.04-1.57,11.11,8.23,11.53,15.65.04.69.26,2.51-.48,2.75-1.39.46-4.65-.25-6.28.04Z"/>
      <path class="cls-1" d="M55,.13c5.23-.89,8.95,2.84,8.59,8.01-.31,4.54-4.32,11.54-9.61,8.44S47.27,1.45,55,.13Z"/>
      <path class="cls-1" d="M93.79.13c5.23-.89,8.95,2.84,8.59,8.01-.31,4.54-4.32,11.54-9.61,8.44s-6.72-15.13,1.01-16.45Z"/>
      <path class="cls-1" d="M13.65,19.75c-2.42-1.61-3.92-6.78-3.54-9.56.15-1.08,2.9-2.87,3.65-2.73.29.06,1.11,1.06,1.56,1.37,2.3,1.62,4.82,3.02,7.74,2.69.24,2.41-1.53,6.89-3.53,8.23-1.59,1.06-4.29,1.06-5.88,0Z"/>
      <path class="cls-2" d="M59.19,30.92c-.8,2.6-1.41,5.3-2.27,7.88-.11.33.08.83-.51.65-.42-.13-2.18-7.45-2.5-8.52,1.12-2.42.98-6.2,1.91-8.53.14-.34.4-.99.88-.88.95.22,1.73,8.16,2.5,9.4Z"/>
      <path class="cls-2" d="M14.23,32.97c1.09-2.28,1.02-5.43,1.82-7.73.17-.49.48-.6.96-.5.41.09,1.66,7.23,1.91,8.23-.46.42-1.73,2.15-2.45,2.02-.51-.09-1.81-1.63-2.25-2.02Z"/>
      <path class="cls-4" d="M104.15,31.8v5.58c-.84.06-2.52,1.93-3.09,1.96-.31.02-3.38-2.2-3.38-2.4v-5.14h6.46Z"/>
    </g>
  </g>
</svg>