<?xml version="1.0" encoding="UTF-8"?>
<svg viewBox="0 0 24 24" strokeLinecap="round" strokeLinejoin="round" strokeWidth="1.5" stroke="currentColor" fill="transparent" xmlns="http://www.w3.org/2000/svg">
				<path id="svg_1" d="m12,21.932a9.934,9.934 0 1 1 9.934,-9.932a9.944,9.944 0 0 1 -9.934,9.932zm0,-18.867a8.934,8.934 0 1 0 8.934,8.935a8.944,8.944 0 0 0 -8.934,-8.935z" />
				<path id="svg_2" d="m16.78803,10.69634c0.26754,-0.16761 0.40343,-0.51681 0.28877,-0.83807c-0.08918,-0.25608 -0.19534,-0.50284 -0.31425,-0.74029l-0.09767,-0.18624c-0.13164,-0.23745 -0.27603,-0.46094 -0.43315,-0.67511c-0.19534,-0.26539 -0.53932,-0.31195 -0.80685,-0.13968l-0.12315,0.07915c-0.39069,0.24676 -0.86631,0.18624 -1.25699,-0.06053s-0.6837,-0.67511 -0.6837,-1.16864l0,-0.1583c0,-0.33988 -0.20808,-0.64252 -0.51384,-0.69373c-0.27603,-0.04656 -0.5563,-0.06984 -0.84507,-0.06984s-0.56904,0.02328 -0.84507,0.06984c-0.30575,0.05122 -0.51384,0.35385 -0.51384,0.69373l0,0.1583c0,0.49353 -0.29301,0.92188 -0.6837,1.16864s-0.86631,0.30729 -1.25699,0.06053l-0.12315,-0.07915c-0.26754,-0.16761 -0.61151,-0.12105 -0.80685,0.13968c-0.15712,0.21417 -0.30151,0.44231 -0.43315,0.67977l-0.09767,0.18158c-0.1189,0.23745 -0.22507,0.48422 -0.31425,0.74029c-0.11041,0.3166 0.02123,0.6658 0.28877,0.83341l0.12315,0.07915c0.39069,0.24676 0.58178,0.73564 0.58178,1.22917s-0.1911,0.9824 -0.58178,1.22917l-0.1274,0.07915c-0.26754,0.16761 -0.40343,0.51681 -0.28877,0.83341c0.08918,0.25608 0.19534,0.49819 0.31425,0.73564l0.10192,0.19089c0.1274,0.23745 0.27178,0.46094 0.42891,0.67511c0.19534,0.26539 0.53932,0.31195 0.80685,0.13968l0.12315,-0.07915c0.39069,-0.24676 0.86631,-0.18624 1.25699,0.06053s0.6837,0.67511 0.6837,1.16864l0,0.1583c0,0.33988 0.20808,0.64252 0.51384,0.69373c0.27603,0.04656 0.5563,0.06984 0.84507,0.06984s0.56904,-0.02328 0.84507,-0.06984c0.30575,-0.05122 0.51384,-0.35385 0.51384,-0.69373l0,-0.1583c0,-0.49353 0.29301,-0.92188 0.6837,-1.16864s0.86631,-0.30729 1.25699,-0.06053l0.12315,0.07915c0.26754,0.16761 0.61151,0.12105 0.80685,-0.13968c0.15712,-0.21417 0.30151,-0.43766 0.42891,-0.67511l0.10192,-0.19555c0.1189,-0.23745 0.22507,-0.47956 0.31425,-0.73564c0.11041,-0.3166 -0.02123,-0.6658 -0.28877,-0.83341l-0.1274,-0.07915c-0.39069,-0.24676 -0.58178,-0.73564 -0.58178,-1.22917s0.1911,-0.9824 0.58178,-1.22917l0.1274,-0.07915l0.00425,0.00931l-0.00002,0.00001zm-6.4803,1.30832a1.69864,1.86237 0 1 1 3.39728,0a1.69864,1.86237 0 1 1 -3.39728,0z" />
				<ellipse fill='#FFFFFFC0' strokeWidth="0" cx="18.5" cy="16.6" id="svg_6" rx="6.2499" ry="6.2499" />
				<text fontFamily={_themeGet('font')} fill={_themeGet('colors', 'text')} stroke={_themeGet('colors', 'text')} strokeWidth="0" x="15.12495" y="20.24987" id="svg_5" fontSize="12" textAnchor="start" fontWeight="bold">A</text>
			</svg>