<?xml version="1.0" encoding="UTF-8"?>
<svg id="Livello_2" data-name="Livello 2" xmlns="http://www.w3.org/2000/svg" viewBox="0 0 101.65 99.99">
  <defs>
    <style>
      .cls-1 {
        fill: #d8dce1;
      }

      .cls-2 {
        fill: #193658;
      }

      .cls-3 {
        fill: #fff;
      }

      .cls-4 {
        fill: #3354a1;
      }
    </style>
  </defs>
  <g id="Livello_1-2" data-name="Livello 1">
    <g>
      <path class="cls-1" d="M94.77,17.53c.07,13.46-.05,26.94,0,40.41-.64.17-1.31.34-1.98.29-3.83-.28-7.71-.61-11.53-.99-.32-.03-.63-.13-.95-.25s-.63-.27-.93-.43l-.55-.25v-14.95l.55-.32-.57-.04c-2.7-6.23-9.15-2.33-7.82,3.63l.15,6.27-.55.72-.19.55h-28.06l-.34-.55c.9.45.86,3.87,0,4.4,0-.22.06-.55.19-.55,9.18-.18,18.88-.18,28.06,0l.34.55c.78,5.46.81,11.03,0,16.49l-.25.55h-13.85l-.33-.55-.07.59c-3.7.88-5.1,4.15-4.77,7.71l-.51.5c-15.44-.14-30.89.1-46.33.01-1.79-.04-3.3-1.29-3.99-2.88C.08,58.19.11,37.81.21,17.53l.26-.55h93.95l.34.55Z"/>
      <path class="cls-4" d="M94.77,17.53H.21c.02-3.92-.54-10.23.07-13.82C.62,1.7,2.04.42,3.99,0l87.49.06c1.69.61,2.92,1.81,3.23,3.65.6,3.59.04,9.9.07,13.82Z"/>
      <path class="cls-2" d="M70.58,51.61c.02-3.17-.34-7.29,0-10.31.41-3.68,4.73-5.31,7.44-2.76.37.35,1.36,2.12,1.36,2.49v15.53c5.11.36,10.31.65,15.39,1.37,3.42.49,6.14,1.32,6.6,5.36.65,5.75.2,15.25-1.52,20.74-.37,1.16-2.88,6.64-2.88,7.02v8.93h-21.99v-9.48c0-.97-1.53-3.82-2.21-4.67-4.48-5.62-15.48-4.48-21.98-4.54-.31-3.33.42-6.76,3.74-8.22.26-.11,1.5-.58,1.62-.58h14.43c.02-5.49-.02-11,0-16.49-.68-1.48-.69-2.92,0-4.4Z"/>
      <rect class="cls-3" x="41.99" y="29.62" width="35.18" height="4.4"/>
      <rect class="cls-3" x="17.81" y="51.61" width="13.19" height="13.19"/>
      <path class="cls-3" d="M70.58,51.61c0,1.46,0,2.94,0,4.4h-28.59v-4.4h28.59Z"/>
      <rect class="cls-3" x="41.99" y="38.42" width="19.79" height="4.4"/>
      <rect class="cls-3" x="41.99" y="60.41" width="19.79" height="4.4"/>
      <path class="cls-3" d="M28.7,28.82c.34-.06,3.17,2.74,3.1,3.1l-9.5,9.5c-.5.09-5.57-5.44-6.4-6.2-.08-.47,2.43-2.59,2.9-3.1l3.5,2.98,6.4-6.28Z"/>
      <rect class="cls-2" x="9.01" y="6.53" width="4.4" height="4.4"/>
      <rect class="cls-2" x="17.81" y="6.53" width="4.4" height="4.4"/>
      <rect class="cls-2" x="26.6" y="6.53" width="4.4" height="4.4"/>
      <rect class="cls-1" x="22.2" y="56.01" width="4.4" height="4.4"/>
    </g>
  </g>
</svg>