<?xml version="1.0" encoding="UTF-8"?>
<svg id="Livello_2" data-name="Livello 2" xmlns="http://www.w3.org/2000/svg" viewBox="0 0 99.38 101.26">
  <defs>
    <style>
      .cls-1 {
        fill: #d8dce1;
      }

      .cls-2 {
        fill: #193658;
      }

      .cls-3 {
        fill: #fff;
      }

      .cls-4 {
        fill: #3354a1;
      }
    </style>
  </defs>
  <g id="Livello_1-2" data-name="Livello 1">
    <g>
      <path class="cls-1" d="M86.76,25.35c.04,9.58-.03,19.17,0,28.76h-1.06c-3.91-2.07-8.33-3.12-12.76-2.96l-.96-.47-.53-.24v-12.1l.53-.32-.24.53h-14.21l-.32-.53c.21.02.52.1.53.24.16,3.96.21,8.79,0,12.74.18.96,0,1.56-.53,1.79.05-.21.14-.51.3-.53,1.56-.13,4.36-.13,5.92,0l.38.53-.55.83c-5,2.46-8.99,6.64-11.53,11.56l-.85.53-.47-.57c-.07-.69-.22-5.26-.09-5.5s.31-.42.57-.52c-.02.21-.1.52-.24.53-3.96.16-8.79.21-12.74,0-.96.18-1.56,0-1.79-.53l.53.24v14.21l-.53.32.24-.53h12.1l.32.53.49.6c-.09,3.11.26,6.26,1.15,9.25l-.32.71H4.31c-1.72-.03-3.17-1.22-3.83-2.76C.08,62.97.16,44.11.23,25.35l.25-.53h85.95l.33.53Z"/>
      <path class="cls-2" d="M71.99,50.67c5.14-.39,10.36.86,14.77,3.43,15.02,8.74,17.05,29.79,3.82,41.15-13.4,11.5-34.58,5.72-40.49-10.81-1.04-2.91-1.55-7.48-1.32-10.55-.51-.59-.55-1.37-.13-2.35l1.63-5.4.61-.42c2.6-5.53,7.28-10.46,12.93-12.93l.29-.69c2.35-.92,4.81-1.58,7.31-1.89l.58.47Z"/>
      <path class="cls-4" d="M19.23,6.35c.78,3.32.88,7.26,0,10.55.06-.21.14-.5.31-.53.74-.12,4.93-.13,5.64,0l.38.53c-.88-3.29-.78-7.24,0-10.55h35.88c.78,3.32.88,7.26,0,10.55.06-.21.14-.51.31-.53.64-.08,5.21-.12,5.64,0l.38.53c-.88-3.29-.78-7.24,0-10.55h15.44c1.56.17,3.37,1.96,3.56,3.56.53,4.36-.02,10.82,0,15.44H.23c.02-4.63-.53-11.07,0-15.44.2-1.66,1.91-3.36,3.56-3.56h15.44Z"/>
      <path class="cls-2" d="M25.56,6.35c.07,3.51-.05,7.04,0,10.55h-6.33c.05-3.51-.07-7.04,0-10.55.05-2.31-.42-6.19,3.04-6.35,3.66-.17,3.25,3.98,3.29,6.35Z"/>
      <path class="cls-2" d="M67.77,6.35c.07,3.51-.05,7.04,0,10.55h-6.33c.05-3.51-.07-7.04,0-10.55.05-2.31-.42-6.19,3.04-6.35,3.66-.17,3.25,3.98,3.29,6.35Z"/>
      <rect class="cls-3" x="15.01" y="38.01" width="14.77" height="14.77"/>
      <rect class="cls-3" x="36.11" y="38.01" width="14.77" height="14.77"/>
      <rect class="cls-3" x="15.01" y="59.11" width="14.77" height="14.77"/>
      <path class="cls-3" d="M63.81,52.78h-6.6v-14.77h14.77v12.66c-2.45.19-5.92,1.12-8.18,2.11Z"/>
      <path class="cls-3" d="M48.77,73.89h-12.66v-14.77h14.77c-.2,2.06.27,4.6,0,6.6-.34,2.44-1.88,5.13-2.11,8.18Z"/>
      <path class="cls-3" d="M68.5,58.64c.59-.05,1.53.42,1.88.9l4.72,12.96c.46.79,1.74,1.15,2.05,2.17,1.18,3.83-3.11,6.1-5.43,3.59-1.52-1.64-.4-2.74-.62-4.37-.49-3.56-3.97-9.04-4.36-12.55-.14-1.31.32-2.57,1.76-2.69Z"/>
    </g>
  </g>
</svg>