<?xml version="1.0" encoding="UTF-8"?>
<svg id="Livello_2" data-name="Livello 2" xmlns="http://www.w3.org/2000/svg" viewBox="0 0 112.4 108.14">
  <defs>
    <style>
      .cls-1 {
        fill: #d8dce1;
      }

      .cls-2 {
        fill: #193658;
      }

      .cls-3 {
        fill: #3354a1;
      }
    </style>
  </defs>
  <g id="Livello_1-2" data-name="Livello 1">
    <g>
      <path class="cls-3" d="M54.38,56.03c1.05-.71,1.11-1.66,3.09-.97,7.38,5.65,15.07,10.78,24.66,11.39,6.14.39,10-1.78,15.61,2.14,8.52,5.96,12.72,22.92,14.26,32.79.25,1.62,1.27,5.54-1.47,5.58-2.13.03-3.7-5.76-4.73-7.27l-2.96-5.35v13.38s-.39.42-.42.42h-24.51s-.42-.39-.42-.42v-30.28c-8.65-2.68-14.93-8.61-20.42-15.5-.29-.36-.83-.63-.99-.84-.83.34-2.07-1.91-2.32-2.67-.35-1.1-.19-1.6.63-2.4Z"/>
      <path class="cls-1" d="M56.07,61.1c-5.45,7.07-12.65,13.01-21.13,16.07-.01.19.28.34.28.41v30.14s-.39.42-.42.42H10.29s-.42-.39-.42-.42v-14.51l-5.91,11.7c-1.72,1.22-4.07,1.18-3.96-1.4.33-7.81,5.9-26.16,11-32.12,6.35-7.42,11.86-4.46,20.13-5.22,9.46-.87,15.72-5.02,23.24-10.14-.3.8-.35,1.39-.1,2.21.12.38,1.47,2.45,1.79,2.86Z"/>
      <path class="cls-1" d="M64.24,40.53l-1.05.51c-4.46-.2-8.93-.15-13.39.01l-1.05-.52c-.53-6.79-6.91-10.79-9.02-16.76C35.12,10.71,46.61-2.58,60.25.43c10.54,2.33,16.54,13.58,12.86,23.75-2.04,5.62-8.73,9.81-8.87,16.35Z"/>
      <path class="cls-1" d="M20.51,41.17c15.12-2.06,16.62,18.66,3.8,20.42-14.5,1.99-16.39-18.71-3.8-20.42Z"/>
      <path class="cls-3" d="M88.12,41.17c14.95-2.16,16.71,18.65,3.8,20.42-14.42,1.98-16.41-18.6-3.8-20.42Z"/>
      <path class="cls-3" d="M48.75,40.53c4.72-.21,10.81-.28,15.49,0,.37.02.75-.02,1.13,0-.45,2.12.78,5.61-.07,7.4-1.03,2.17-3.59,1.57-5.57,1.61-2.15.91-4.89.92-7.04,0-1.42-.04-3.37.31-4.49-.72-1.61-1.49-.56-6.18-.86-8.3.47-.02.94.02,1.41,0Z"/>
      <path class="cls-2" d="M59.74,49.55c-.31,2.62-2.81,2.48-4.95,2.27-1.52-.15-1.7-.89-2.1-2.27,2.33.06,4.72.05,7.04,0Z"/>
    </g>
  </g>
</svg>